<?xml version='1.0' encoding='us-ascii'?>
<svg xmlns="http://www.w3.org/2000/svg" viewBox="0,0,980,500" width="980" font-family="sans-serif" text-anchor="middle" style="max-width: 100%; height: auto; height: intrinsic;"><g transform="translate(0,0)" id="g"><text font-size="67" transform="translate(393,352) rotate(0)" id="text_249">freedom</text><text font-size="58" transform="translate(246,285) rotate(0)" id="text_248">negro</text><text font-size="54" transform="translate(577,201) rotate(0)" id="text_247">one</text><text font-size="54" transform="translate(359,295) rotate(0)" id="text_246">let</text><text font-size="51" transform="translate(704,246) rotate(0)" id="text_245">ring</text><text font-size="49" transform="translate(415,144) rotate(0)" id="text_244">nation</text><text font-size="49" transform="translate(399,386) rotate(0)" id="text_243">day</text><text font-size="49" transform="translate(378,200) rotate(0)" id="text_242">dream</text><text font-size="47" transform="translate(673,152) rotate(0)" id="text_241">come</text><text font-size="47" transform="translate(664,114) rotate(0)" id="text_240">every</text><text font-size="45" transform="translate(323,105) rotate(0)" id="text_239">today</text><text font-size="45" transform="translate(700,280) rotate(0)" id="text_238">go</text><text font-size="45" transform="translate(469,226) rotate(0)" id="text_237">back</text><text font-size="42" transform="translate(693,187) rotate(0)" id="text_236">justice</text><text font-size="42" transform="translate(562,169) rotate(0)" id="text_235">must</text><text font-size="42" transform="translate(521,114) rotate(0)" id="text_234">satisfied</text><text font-size="42" transform="translate(478,393) rotate(0)" id="text_233">able</text><text font-size="39" transform="translate(525,254) rotate(0)" id="text_232">together</text><text font-size="36" transform="translate(213,321) rotate(0)" id="text_231">long</text><text font-size="36" transform="translate(218,352) rotate(0)" id="text_230">men</text><text font-size="36" transform="translate(634,351) rotate(0)" id="text_229">white</text><text font-size="36" transform="translate(576,229) rotate(0)" id="text_228">now</text><text font-size="33" transform="translate(344,243) rotate(0)" id="text_227">years</text><text font-size="33" transform="translate(435,279) rotate(0)" id="text_226">great</text><text font-size="33" transform="translate(767,153) rotate(0)" id="text_225">free</text><text font-size="33" transform="translate(265,224) rotate(0)" id="text_224">check</text><text font-size="33" transform="translate(637,321) rotate(0)" id="text_223">america</text><text font-size="33" transform="translate(722,348) rotate(0)" id="text_222">time</text><text font-size="33" transform="translate(449,80) rotate(0)" id="text_221">children</text><text font-size="33" transform="translate(308,154) rotate(0)" id="text_220">new</text><text font-size="33" transform="translate(498,313) rotate(0)" id="text_219">faith</text><text font-size="30" transform="translate(796,205) rotate(0)" id="text_218">american</text><text font-size="30" transform="translate(543,277) rotate(0)" id="text_217">hope</text><text font-size="30" transform="translate(452,171) rotate(0)" id="text_216">hundred</text><text font-size="30" transform="translate(314,312) rotate(0)" id="text_215">later</text><text font-size="30" transform="translate(747,118) rotate(0)" id="text_214">still</text><text font-size="30" transform="translate(430,417) rotate(0)" id="text_213">land</text><text font-size="30" transform="translate(566,379) rotate(0)" id="text_212">black</text><text font-size="30" transform="translate(330,378) rotate(0)" id="text_211">god</text><text font-size="30" transform="translate(545,421) rotate(0)" id="text_210">mississippi</text><text font-size="30" transform="translate(262,132) rotate(0)" id="text_209">mountain</text><text font-size="25" transform="translate(595,300) rotate(0)" id="text_208">join</text><text font-size="25" transform="translate(762,282) rotate(0)" id="text_207">stand</text><text font-size="25" transform="translate(239,244) rotate(0)" id="text_206">injustice</text><text font-size="25" transform="translate(380,221) rotate(0)" id="text_205">words</text><text font-size="25" transform="translate(414,258) rotate(0)" id="text_204">note</text><text font-size="25" transform="translate(646,373) rotate(0)" id="text_203">rights</text><text font-size="25" transform="translate(252,194) rotate(0)" id="text_202">people</text><text font-size="25" transform="translate(618,271) rotate(0)" id="text_201">make</text><text font-size="25" transform="translate(280,369) rotate(0)" id="text_200">rise</text><text font-size="25" transform="translate(264,169) rotate(0)" id="text_199">valley</text><text font-size="25" transform="translate(760,369) rotate(0)" id="text_198">brotherhood</text><text font-size="25" transform="translate(822,170) rotate(0)" id="text_197">sweltering</text><text font-size="25" transform="translate(142,302) rotate(0)" id="text_196">never</text><text font-size="25" transform="translate(328,407) rotate(0)" id="text_195">alabama</text><text font-size="25" transform="translate(168,216) rotate(0)" id="text_194">georgia</text><text font-size="25" transform="translate(725,388) rotate(0)" id="text_193">state</text><text font-size="25" transform="translate(155,247) rotate(0)" id="text_192">little</text><text font-size="25" transform="translate(252,391) rotate(0)" id="text_191">made</text><text font-size="25" transform="translate(725,316) rotate(0)" id="text_190">sing</text><text font-size="25" transform="translate(635,248) rotate(0)" id="text_189">last</text><text font-size="21" transform="translate(205,149) rotate(0)" id="text_188">history</text><text font-size="21" transform="translate(359,169) rotate(0)" id="text_187">came</text><text font-size="21" transform="translate(232,111) rotate(0)" id="text_186">slaves</text><text font-size="21" transform="translate(638,297) rotate(0)" id="text_185">end</text><text font-size="21" transform="translate(547,332) rotate(0)" id="text_184">life</text><text font-size="21" transform="translate(509,439) rotate(0)" id="text_183">segregation</text><text font-size="21" transform="translate(701,201) rotate(0)" id="text_182">cash</text><text font-size="21" transform="translate(548,134) rotate(0)" id="text_181">promissory</text><text font-size="21" transform="translate(183,168) rotate(0)" id="text_180">liberty</text><text font-size="21" transform="translate(558,353) rotate(0)" id="text_179">color</text><text font-size="21" transform="translate(570,76) rotate(0)" id="text_178">insufficient</text><text font-size="21" transform="translate(804,130) rotate(0)" id="text_177">funds</text><text font-size="21" transform="translate(139,324) rotate(0)" id="text_176">refuse</text><text font-size="21" transform="translate(338,64) rotate(0)" id="text_175">believe</text><text font-size="21" transform="translate(522,54) rotate(0)" id="text_174">urgency</text><text font-size="21" transform="translate(412,103) rotate(0)" id="text_173">racial</text><text font-size="21" transform="translate(163,188) rotate(0)" id="text_172">content</text><text font-size="21" transform="translate(836,229) rotate(0)" id="text_171">continue</text><text font-size="21" transform="translate(775,299) rotate(0)" id="text_170">struggle</text><text font-size="21" transform="translate(435,47) rotate(0)" id="text_169">dignity</text><text font-size="21" transform="translate(650,216) rotate(0)" id="text_168">allow</text><text font-size="21" transform="translate(826,247) rotate(0)" id="text_167">creative</text><text font-size="21" transform="translate(126,265) rotate(0)" id="text_166">physical</text><text font-size="21" transform="translate(221,371) rotate(0)" id="text_165">force</text><text font-size="21" transform="translate(673,84) rotate(0)" id="text_164">brothers</text><text font-size="21" transform="translate(623,56) rotate(0)" id="text_163">realize</text><text font-size="21" transform="translate(215,88) rotate(0)" id="text_162">destiny</text><text font-size="21" transform="translate(529,41) rotate(0)" id="text_161">walk</text><text font-size="21" transform="translate(389,432) rotate(0)" id="text_160">police</text><text font-size="21" transform="translate(128,347) rotate(0)" id="text_159">brutality</text><text font-size="21" transform="translate(264,71) rotate(0)" id="text_158">cities</text><text font-size="21" transform="translate(386,310) rotate(0)" id="text_157">vote</text><text font-size="21" transform="translate(803,112) rotate(0)" id="text_156">york</text><text font-size="21" transform="translate(437,299) rotate(0)" id="text_155">like</text><text font-size="21" transform="translate(831,270) rotate(0)" id="text_154">mighty</text><text font-size="21" transform="translate(553,303) rotate(0)" id="text_153">jail</text><text font-size="21" transform="translate(146,123) rotate(0)" id="text_152">suffering</text><text font-size="21" transform="translate(488,196) rotate(0)" id="text_151">work</text><text font-size="21" transform="translate(318,430) rotate(0)" id="text_150">south</text><text font-size="21" transform="translate(650,395) rotate(0)" id="text_149">knowing</text><text font-size="21" transform="translate(96,287) rotate(0)" id="text_148">despair</text><text font-size="21" transform="translate(358,43) rotate(0)" id="text_147">even</text><text font-size="21" transform="translate(358,263) rotate(0)" id="text_146">live</text><text font-size="21" transform="translate(775,320) rotate(0)" id="text_145">true</text><text font-size="21" transform="translate(509,458) rotate(0)" id="text_144">meaning</text><text font-size="21" transform="translate(543,393) rotate(0)" id="text_143">sons</text><text font-size="21" transform="translate(147,366) rotate(0)" id="text_142">former</text><text font-size="21" transform="translate(758,89) rotate(0)" id="text_141">heat</text><text font-size="21" transform="translate(866,140) rotate(0)" id="text_140">boys</text><text font-size="21" transform="translate(592,42) rotate(0)" id="text_139">girls</text><text font-size="21" transform="translate(172,384) rotate(0)" id="text_138">hands</text><text font-size="21" transform="translate(644,417) rotate(0)" id="text_137">hill</text><text font-size="21" transform="translate(793,341) rotate(0)" id="text_136">places</text><text font-size="21" transform="translate(99,241) rotate(0)" id="text_135">stone</text><text font-size="21" transform="translate(705,70) rotate(0)" id="text_134">thee</text><text font-size="21" transform="translate(95,145) rotate(0)" id="text_133">mountainside</text><text font-size="15" transform="translate(435,449) rotate(0)" id="text_132">happy</text><text font-size="15" transform="translate(505,27) rotate(0)" id="text_131">greatest</text><text font-size="15" transform="translate(348,455) rotate(0)" id="text_130">demonstration</text><text font-size="15" transform="translate(360,156) rotate(0)" id="text_129">five</text><text font-size="15" transform="translate(170,200) rotate(0)" id="text_128">score</text><text font-size="15" transform="translate(212,297) rotate(0)" id="text_127">ago</text><text font-size="15" transform="translate(836,309) rotate(0)" id="text_126">symbolic</text><text font-size="15" transform="translate(433,27) rotate(0)" id="text_125">shadow</text><text font-size="15" transform="translate(124,165) rotate(0)" id="text_124">signed</text><text font-size="15" transform="translate(893,214) rotate(0)" id="text_123">emancipation</text><text font-size="15" transform="translate(65,222) rotate(0)" id="text_122">proclamation</text><text font-size="15" transform="translate(776,68) rotate(0)" id="text_121">momentous</text><text font-size="15" transform="translate(597,445) rotate(0)" id="text_120">decree</text><text font-size="15" transform="translate(360,29) rotate(0)" id="text_119">beacon</text><text font-size="15" transform="translate(784,184) rotate(0)" id="text_118">light</text><text font-size="15" transform="translate(166,105) rotate(0)" id="text_117">millions</text><text font-size="15" transform="translate(654,427) rotate(0)" id="text_116">seared</text><text font-size="15" transform="translate(417,236) rotate(0)" id="text_115">flames</text><text font-size="15" transform="translate(660,440) rotate(0)" id="text_114">withering</text><text font-size="15" transform="translate(235,403) rotate(0)" id="text_113">joyous</text><text font-size="15" transform="translate(292,41) rotate(0)" id="text_112">daybreak</text><text font-size="15" transform="translate(213,70) rotate(0)" id="text_111">night</text><text font-size="15" transform="translate(406,14) rotate(0)" id="text_110">captivity</text><text font-size="15" transform="translate(818,148) rotate(0)" id="text_109">sadly</text><text font-size="15" transform="translate(248,427) rotate(0)" id="text_108">crippled</text><text font-size="15" transform="translate(739,400) rotate(0)" id="text_107">manacles</text><text font-size="15" transform="translate(578,459) rotate(0)" id="text_106">chains</text><text font-size="15" transform="translate(191,53) rotate(0)" id="text_105">discrimination</text><text font-size="15" transform="translate(443,314) rotate(0)" id="text_104">lives</text><text font-size="15" transform="translate(861,292) rotate(0)" id="text_103">lonely</text><text font-size="15" transform="translate(173,398) rotate(0)" id="text_102">island</text><text font-size="15" transform="translate(665,40) rotate(0)" id="text_101">poverty</text><text font-size="15" transform="translate(847,186) rotate(0)" id="text_100">midst</text><text font-size="15" transform="translate(634,232) rotate(0)" id="text_99">vast</text><text font-size="15" transform="translate(155,92) rotate(0)" id="text_98">ocean</text><text font-size="15" transform="translate(832,326) rotate(0)" id="text_97">material</text><text font-size="15" transform="translate(81,207) rotate(0)" id="text_96">prosperity</text><text font-size="15" transform="translate(242,443) rotate(0)" id="text_95">languishing</text><text font-size="15" transform="translate(202,416) rotate(0)" id="text_94">corners</text><text font-size="15" transform="translate(894,186) rotate(0)" id="text_93">society</text><text font-size="15" transform="translate(585,395) rotate(0)" id="text_92">finds</text><text font-size="15" transform="translate(327,222) rotate(0)" id="text_91">exile</text><text font-size="15" transform="translate(79,187) rotate(0)" id="text_90">dramatize</text><text font-size="15" transform="translate(107,382) rotate(0)" id="text_89">shameful</text><text font-size="15" transform="translate(911,269) rotate(0)" id="text_88">condition</text><text font-size="15" transform="translate(477,182) rotate(0)" id="text_87">sense</text><text font-size="15" transform="translate(65,167) rotate(0)" id="text_86">capital</text><text font-size="15" transform="translate(344,468) rotate(0)" id="text_85">architects</text><text font-size="15" transform="translate(571,23) rotate(0)" id="text_84">republic</text><text font-size="15" transform="translate(790,216) rotate(0)" id="text_83">wrote</text><text font-size="15" transform="translate(53,309) rotate(0)" id="text_82">magnificent</text><text font-size="15" transform="translate(917,249) rotate(0)" id="text_81">constitution</text><text font-size="15" transform="translate(62,323) rotate(0)" id="text_80">declaration</text><text font-size="15" transform="translate(79,99) rotate(0)" id="text_79">independence</text><text font-size="15" transform="translate(433,472) rotate(0)" id="text_78">signing</text><text font-size="15" transform="translate(628,284) rotate(0)" id="text_77">fall</text><text font-size="15" transform="translate(713,295) rotate(0)" id="text_76">heir</text><text font-size="15" transform="translate(914,229) rotate(0)" id="text_75">promise</text><text font-size="15" transform="translate(494,278) rotate(0)" id="text_74">yes</text><text font-size="15" transform="translate(261,147) rotate(0)" id="text_73">well</text><text font-size="15" transform="translate(832,87) rotate(0)" id="text_72">guaranteed</text><text font-size="15" transform="translate(127,81) rotate(0)" id="text_71">unalienable</text><text font-size="15" transform="translate(302,23) rotate(0)" id="text_70">pursuit</text><text font-size="15" transform="translate(794,383) rotate(0)" id="text_69">happiness</text><text font-size="15" transform="translate(248,459) rotate(0)" id="text_68">obvious</text><text font-size="15" transform="translate(502,473) rotate(0)" id="text_67">defaulted</text><text font-size="15" transform="translate(232,33) rotate(0)" id="text_66">insofar</text><text font-size="15" transform="translate(689,410) rotate(0)" id="text_65">citizens</text><text font-size="15" transform="translate(67,366) rotate(0)" id="text_64">concerned</text><text font-size="15" transform="translate(48,266) rotate(0)" id="text_63">instead</text><text font-size="15" transform="translate(115,399) rotate(0)" id="text_62">honoring</text><text font-size="15" transform="translate(329,443) rotate(0)" id="text_61">sacred</text><text font-size="15" transform="translate(157,435) rotate(0)" id="text_60">obligation</text><text font-size="15" transform="translate(147,412) rotate(0)" id="text_59">given</text><text font-size="15" transform="translate(344,392) rotate(0)" id="text_58">bad</text><text font-size="15" transform="translate(62,123) rotate(0)" id="text_57">marked</text><text font-size="15" transform="translate(286,474) rotate(0)" id="text_56">bank</text><text font-size="15" transform="translate(871,345) rotate(0)" id="text_55">bankrupt</text><text font-size="15" transform="translate(709,423) rotate(0)" id="text_54">vaults</text><text font-size="15" transform="translate(771,413) rotate(0)" id="text_53">opportunity</text><text font-size="15" transform="translate(721,325) rotate(0)" id="text_52">give</text><text font-size="15" transform="translate(735,436) rotate(0)" id="text_51">demand</text><text font-size="15" transform="translate(355,77) rotate(0)" id="text_50">riches</text><text font-size="15" transform="translate(54,351) rotate(0)" id="text_49">security</text><text font-size="15" transform="translate(514,363) rotate(0)" id="text_48">also</text><text font-size="15" transform="translate(664,125) rotate(0)" id="text_47">hallowed</text><text font-size="15" transform="translate(723,55) rotate(0)" id="text_46">spot</text><text font-size="15" transform="translate(905,310) rotate(0)" id="text_45">remind</text><text font-size="15" transform="translate(810,396) rotate(0)" id="text_44">fierce</text><text font-size="15" transform="translate(656,25) rotate(0)" id="text_43">engage</text><text font-size="15" transform="translate(125,68) rotate(0)" id="text_42">luxury</text><text font-size="15" transform="translate(36,337) rotate(0)" id="text_41">cooling</text><text font-size="15" transform="translate(661,202) rotate(0)" id="text_40">take</text><text font-size="15" transform="translate(76,421) rotate(0)" id="text_39">tranquilizing</text><text font-size="15" transform="translate(360,482) rotate(0)" id="text_38">drug</text><text font-size="15" transform="translate(500,14) rotate(0)" id="text_37">gradualism</text><text font-size="15" transform="translate(149,282) rotate(0)" id="text_36">real</text><text font-size="15" transform="translate(148,452) rotate(0)" id="text_35">promises</text><text font-size="15" transform="translate(658,14) rotate(0)" id="text_34">democracy</text><text font-size="15" transform="translate(856,366) rotate(0)" id="text_33">dark</text><text font-size="15" transform="translate(49,406) rotate(0)" id="text_32">desolate</text><text font-size="15" transform="translate(866,379) rotate(0)" id="text_31">sunlit</text><text font-size="15" transform="translate(852,117) rotate(0)" id="text_30">path</text><text font-size="15" transform="translate(353,312) rotate(0)" id="text_29">lift</text><text font-size="15" transform="translate(263,13) rotate(0)" id="text_28">quick</text><text font-size="15" transform="translate(244,477) rotate(0)" id="text_27">sands</text><text font-size="15" transform="translate(623,457) rotate(0)" id="text_26">solid</text><text font-size="15" transform="translate(260,414) rotate(0)" id="text_25">rock</text><text font-size="15" transform="translate(859,101) rotate(0)" id="text_24">reality</text><text font-size="15" transform="translate(882,199) rotate(0)" id="text_23">fatal</text><text font-size="15" transform="translate(924,166) rotate(0)" id="text_22">overlook</text><text font-size="15" transform="translate(698,455) rotate(0)" id="text_21">moment</text><text font-size="15" transform="translate(804,429) rotate(0)" id="text_20">summer</text><text font-size="15" transform="translate(733,33) rotate(0)" id="text_19">legitimate</text><text font-size="15" transform="translate(164,37) rotate(0)" id="text_18">discontent</text><text font-size="15" transform="translate(902,292) rotate(0)" id="text_17">pass</text><text font-size="15" transform="translate(820,51) rotate(0)" id="text_16">invigorating</text><text font-size="15" transform="translate(40,247) rotate(0)" id="text_15">autumn</text><text font-size="15" transform="translate(916,126) rotate(0)" id="text_14">equality</text><text font-size="15" transform="translate(190,18) rotate(0)" id="text_13">nineteen</text><text font-size="15" transform="translate(862,66) rotate(0)" id="text_12">sixty-three</text><text font-size="15" transform="translate(505,486) rotate(0)" id="text_11">beginning</text><text font-size="15" transform="translate(914,153) rotate(0)" id="text_10">needed</text><text font-size="15" transform="translate(233,179) rotate(0)" id="text_9">blow</text><text font-size="15" transform="translate(103,54) rotate(0)" id="text_8">steam</text><text font-size="15" transform="translate(749,215) rotate(0)" id="text_7">rude</text><text font-size="15" transform="translate(919,283) rotate(0)" id="text_6">awakening</text><text font-size="15" transform="translate(581,474) rotate(0)" id="text_5">returns</text><text font-size="15" transform="translate(675,468) rotate(0)" id="text_4">business</text><text font-size="15" transform="translate(412,485) rotate(0)" id="text_3">usual</text><text font-size="15" transform="translate(742,20) rotate(0)" id="text_2">neither</text><text font-size="15" transform="translate(724,162) rotate(0)" id="text_1">rest</text><text font-size="15" transform="translate(857,412) rotate(0)" id="text">tranquility</text></g></svg>