<?xml version='1.0' encoding='us-ascii'?>
<svg xmlns="http://www.w3.org/2000/svg" version="1.1" class="marks" width="749" height="260" viewBox="0 0 749 260">
    <rect width="749" height="260" fill="white" id="rect" />
    <g fill="none" stroke-miterlimit="10" transform="translate(53,23)" id="g">
        <g class="mark-group role-frame root" role="graphics-object" aria-roledescription="group mark container" id="g_1">
            <g transform="translate(0,0)" id="g_2">
                <path class="background" aria-hidden="true" d="M0,0h600v200h-600Z" id="path_60" />
                <g id="g_3">
                    <g class="mark-group role-axis" role="graphics-symbol" aria-roledescription="axis" aria-label="X-axis titled 'Date' for a time scale with values from May to October" id="g_84">
                        <g transform="translate(0.5,200.5)" id="g_85">
                            <path class="background" aria-hidden="true" d="M0,0h0v0h0Z" pointer-events="none" id="path_59" />
                            <g id="g_86">
                                <g class="mark-rule role-axis-tick" pointer-events="none" id="g_90">
                                    <line transform="translate(31,0)" x2="0" y2="5" stroke="#888" stroke-width="1" opacity="1" id="line_25" />
                                    <line transform="translate(65,0)" x2="0" y2="5" stroke="#888" stroke-width="1" opacity="1" id="line_24" />
                                    <line transform="translate(101,0)" x2="0" y2="5" stroke="#888" stroke-width="1" opacity="1" id="line_23" />
                                    <line transform="translate(136,0)" x2="0" y2="5" stroke="#888" stroke-width="1" opacity="1" id="line_22" />
                                    <line transform="translate(171,0)" x2="0" y2="5" stroke="#888" stroke-width="1" opacity="1" id="line_21" />
                                    <line transform="translate(206,0)" x2="0" y2="5" stroke="#888" stroke-width="1" opacity="1" id="line_20" />
                                    <line transform="translate(241,0)" x2="0" y2="5" stroke="#888" stroke-width="1" opacity="1" id="line_19" />
                                    <line transform="translate(276,0)" x2="0" y2="5" stroke="#888" stroke-width="1" opacity="1" id="line_18" />
                                    <line transform="translate(312,0)" x2="0" y2="5" stroke="#888" stroke-width="1" opacity="1" id="line_17" />
                                    <line transform="translate(344,0)" x2="0" y2="5" stroke="#888" stroke-width="1" opacity="1" id="line_16" />
                                    <line transform="translate(379,0)" x2="0" y2="5" stroke="#888" stroke-width="1" opacity="1" id="line_15" />
                                    <line transform="translate(414,0)" x2="0" y2="5" stroke="#888" stroke-width="1" opacity="1" id="line_14" />
                                    <line transform="translate(449,0)" x2="0" y2="5" stroke="#888" stroke-width="1" opacity="1" id="line_13" />
                                    <line transform="translate(484,0)" x2="0" y2="5" stroke="#888" stroke-width="1" opacity="1" id="line_12" />
                                    <line transform="translate(519,0)" x2="0" y2="5" stroke="#888" stroke-width="1" opacity="1" id="line_11" />
                                    <line transform="translate(555,0)" x2="0" y2="5" stroke="#888" stroke-width="1" opacity="1" id="line_10" />
                                    <line transform="translate(589,0)" x2="0" y2="5" stroke="#888" stroke-width="1" opacity="1" id="line_9" />
                                </g>
                                <g class="mark-text role-axis-label" pointer-events="none" id="g_89"><text text-anchor="middle" transform="translate(30.955414012738856,15)" font-family="sans-serif" font-size="10px" fill="#000" opacity="1" id="text_101">Jun</text><text text-anchor="middle" transform="translate(65.35031847133759,15)" font-family="sans-serif" font-size="10px" fill="#000" opacity="1" id="text_100">Jul</text><text text-anchor="middle" transform="translate(100.89171974522293,15)" font-family="sans-serif" font-size="10px" fill="#000" opacity="1" id="text_99">Aug</text><text text-anchor="middle" transform="translate(136.43312101910828,15)" font-family="sans-serif" font-size="10px" fill="#000" opacity="1" id="text_98">Sep</text><text text-anchor="middle" transform="translate(170.828025477707,15)" font-family="sans-serif" font-size="10px" fill="#000" opacity="1" id="text_97">Oct</text><text text-anchor="middle" transform="translate(206.36942675159236,15)" font-family="sans-serif" font-size="10px" fill="#000" opacity="1" id="text_96">Nov</text><text text-anchor="middle" transform="translate(240.7643312101911,15)" font-family="sans-serif" font-size="10px" fill="#000" opacity="1" id="text_95">Dec</text><text text-anchor="middle" transform="translate(276.30573248407643,15)" font-family="sans-serif" font-size="10px" fill="#000" opacity="1" id="text_94">Jan</text><text text-anchor="middle" transform="translate(311.8471337579618,15)" font-family="sans-serif" font-size="10px" fill="#000" opacity="1" id="text_93">Feb</text><text text-anchor="middle" transform="translate(343.9490445859872,15)" font-family="sans-serif" font-size="10px" fill="#000" opacity="1" id="text_92">Mar</text><text text-anchor="middle" transform="translate(379.4904458598726,15)" font-family="sans-serif" font-size="10px" fill="#000" opacity="1" id="text_91">Apr</text><text text-anchor="middle" transform="translate(413.8853503184713,15)" font-family="sans-serif" font-size="10px" fill="#000" opacity="1" id="text_90">May</text><text text-anchor="middle" transform="translate(449.42675159235665,15)" font-family="sans-serif" font-size="10px" fill="#000" opacity="1" id="text_89">Jun</text><text text-anchor="middle" transform="translate(483.8216560509554,15)" font-family="sans-serif" font-size="10px" fill="#000" opacity="1" id="text_88">Jul</text><text text-anchor="middle" transform="translate(519.3630573248408,15)" font-family="sans-serif" font-size="10px" fill="#000" opacity="1" id="text_87">Aug</text><text text-anchor="middle" transform="translate(554.9044585987261,15)" font-family="sans-serif" font-size="10px" fill="#000" opacity="1" id="text_86">Sep</text><text text-anchor="middle" transform="translate(589.2993630573249,15)" font-family="sans-serif" font-size="10px" fill="#000" opacity="1" id="text_85">Oct</text></g>
                                <g class="mark-rule role-axis-domain" pointer-events="none" id="g_88">
                                    <line transform="translate(0,0)" x2="600" y2="0" stroke="#888" stroke-width="1" opacity="1" id="line_8" />
                                </g>
                                <g class="mark-text role-axis-title" pointer-events="none" id="g_87"><text text-anchor="middle" transform="translate(300,30)" font-family="sans-serif" font-size="11px" font-weight="bold" fill="#000" opacity="1" id="text_84">Date</text></g>
                            </g>
                            <path class="foreground" aria-hidden="true" d="" pointer-events="none" display="none" id="path_58" />
                        </g>
                    </g>
                    <g class="mark-group role-axis" role="graphics-symbol" aria-roledescription="axis" aria-label="Y-axis titled 'Price' for a linear scale with values from 0 to 4,500" id="g_77">
                        <g transform="translate(0.5,0.5)" id="g_78">
                            <path class="background" aria-hidden="true" d="M0,0h0v0h0Z" pointer-events="none" id="path_57" />
                            <g id="g_79">
                                <g class="mark-rule role-axis-tick" pointer-events="none" id="g_83">
                                    <line transform="translate(0,200)" x2="-5" y2="0" stroke="#888" stroke-width="1" opacity="1" id="line_7" />
                                    <line transform="translate(0,156)" x2="-5" y2="0" stroke="#888" stroke-width="1" opacity="1" id="line_6" />
                                    <line transform="translate(0,111)" x2="-5" y2="0" stroke="#888" stroke-width="1" opacity="1" id="line_5" />
                                    <line transform="translate(0,67)" x2="-5" y2="0" stroke="#888" stroke-width="1" opacity="1" id="line_4" />
                                    <line transform="translate(0,22)" x2="-5" y2="0" stroke="#888" stroke-width="1" opacity="1" id="line_3" />
                                </g>
                                <g class="mark-text role-axis-label" pointer-events="none" id="g_82"><text text-anchor="end" transform="translate(-7,203)" font-family="sans-serif" font-size="10px" fill="#000" opacity="1" id="text_83">0</text><text text-anchor="end" transform="translate(-7,158.55555555555557)" font-family="sans-serif" font-size="10px" fill="#000" opacity="1" id="text_82">1,000</text><text text-anchor="end" transform="translate(-7,114.11111111111111)" font-family="sans-serif" font-size="10px" fill="#000" opacity="1" id="text_81">2,000</text><text text-anchor="end" transform="translate(-7,69.66666666666667)" font-family="sans-serif" font-size="10px" fill="#000" opacity="1" id="text_80">3,000</text><text text-anchor="end" transform="translate(-7,25.222222222222232)" font-family="sans-serif" font-size="10px" fill="#000" opacity="1" id="text_79">4,000</text></g>
                                <g class="mark-rule role-axis-domain" pointer-events="none" id="g_81">
                                    <line transform="translate(0,200)" x2="0" y2="-200" stroke="#888" stroke-width="1" opacity="1" id="line_2" />
                                </g>
                                <g class="mark-text role-axis-title" pointer-events="none" id="g_80"><text text-anchor="middle" transform="translate(-36.8642578125,100) rotate(-90) translate(0,-2)" font-family="sans-serif" font-size="11px" font-weight="bold" fill="#000" opacity="1" id="text_78">Price</text></g>
                            </g>
                            <path class="foreground" aria-hidden="true" d="" pointer-events="none" display="none" id="path_56" />
                        </g>
                    </g>
                    <g class="mark-group role-scope layer_0_pathgroup" role="graphics-object" aria-roledescription="group mark container" id="g_52">
                        <g transform="translate(0,0)" id="g_74">
                            <path class="background" aria-hidden="true" d="M0,0h600v200h-600Z" id="path_55" />
                            <g id="g_75">
                                <g class="mark-line role-mark layer_0_marks" role="graphics-object" aria-roledescription="line mark container" id="g_76">
                                    <path aria-label="Date: Jan; Price: 401.283333333; model: RTX 3050" role="graphics-symbol" aria-roledescription="line mark" d="M306.115,182.165L307.261,181.704L308.408,180.693L310.701,179.263L311.847,178.951L312.994,178.64L314.14,179.15L315.287,179.061L316.433,179.283L317.58,179.313L318.726,179.122L319.873,179.52L321.019,179.485L322.166,179.854L323.312,180.172L324.459,180.285L325.605,180.31L326.752,180.556L327.898,180.589L329.045,180.816L330.191,181.411L331.338,181.931L332.484,182.255L333.631,181.766L334.777,181.649L335.924,181.603L337.07,181.608L338.217,181.173L339.363,181.443L340.51,181.477L341.656,181.341L342.803,181.697L343.949,182.166L345.096,182.244L346.242,182.248L347.389,182.629L348.535,182.413L349.682,182.393L350.828,182.006L351.975,181.717L353.121,181.613L354.268,181.883L355.414,182.446L356.561,182.495L357.707,182.419L358.854,182.254L360,181.913L361.146,181.813L362.293,181.939L363.439,182.191L364.586,182.383L365.732,182.301L366.879,182.373L368.025,182.056L369.172,182.085L370.318,182.101L371.465,181.769L372.611,181.887L373.758,181.967L374.904,182.209L376.051,182.745L377.197,182.712L378.344,182.658L379.49,182.686L380.637,182.803L381.783,182.766L382.93,182.66L384.076,182.548L385.223,182.52L386.369,182.443L387.516,182.513L388.662,182.602L389.809,182.637L390.955,182.719L392.102,182.62L393.248,182.562L394.395,182.411L395.541,182.237L396.688,182.297L397.834,182.221L398.981,182.201L400.127,182.141L401.274,182.271L402.42,182.204L403.567,182.195L404.713,182.172L405.86,181.895L407.006,181.792L408.153,181.813L409.299,181.774L410.446,181.846L411.592,181.873L412.739,181.953L413.885,181.913L415.032,182.049L416.178,182.267L417.325,182.315L418.471,182.26L419.618,182.19L420.764,182.187L421.911,182.163L423.057,182.226L424.204,182.242L425.35,182.35L426.497,182.348L427.643,182.351L428.79,182.379L429.936,182.472L431.083,182.664L432.229,182.719L433.376,182.704L434.522,182.78L435.669,182.771L436.815,182.897L437.962,182.952L439.108,183.035L440.255,183.14L441.401,183.188L442.548,183.118L443.694,183.112L444.841,183.119L445.987,183.193L447.134,183.167L448.28,183.093L449.427,183.192L450.573,183.251L451.72,183.359L452.866,183.443L454.013,183.48L455.159,183.546L456.306,183.545L457.452,183.598L458.599,183.651L459.745,183.702L460.892,183.818L462.038,183.701L463.185,183.594L464.331,183.395L465.478,183.49L466.624,183.643L467.771,183.51L468.917,183.482L470.064,183.448L471.21,183.487L472.357,183.469L473.503,183.43L474.65,183.284L475.796,183.273L476.943,183.33L478.089,183.449L479.236,183.516L480.382,183.559L481.529,183.578L482.675,183.58L483.822,183.377L484.968,183.389L486.115,183.345L487.261,183.433L488.408,183.49L489.554,183.462L490.701,183.669L491.847,183.716L492.994,183.719L494.14,183.698L495.287,183.64L496.433,183.586L497.58,183.753L498.726,183.769L499.873,183.758L501.019,183.796L502.166,183.802L503.312,183.756L504.459,183.731L505.605,183.612L506.752,183.558L507.898,183.523L509.045,183.558L510.191,183.589L511.338,183.632L512.484,183.736L513.631,183.843L514.777,183.886L515.924,183.867L518.217,183.888L519.363,183.998L520.51,183.984L521.656,183.768L522.803,183.748L523.949,183.737L525.096,183.777L526.242,183.778L527.389,183.757L528.535,183.662L529.682,183.733L530.828,183.791L531.975,183.906L533.121,183.944L534.268,183.918L535.414,183.874L536.561,183.852L538.854,183.869L540,183.902L541.146,183.878L542.293,183.879L543.439,183.894L544.586,183.827L552.611,183.845L554.904,183.854L561.783,183.868L565.223,183.859L566.369,183.861" stroke="#b15928" stroke-width="2" id="path_54" />
                                </g>
                            </g>
                            <path class="foreground" aria-hidden="true" d="" display="none" id="path_53" />
                        </g>
                        <g transform="translate(0,0)" id="g_71">
                            <path class="background" aria-hidden="true" d="M0,0h600v200h-600Z" id="path_52" />
                            <g id="g_72">
                                <g class="mark-line role-mark layer_0_marks" role="graphics-object" aria-roledescription="line mark container" id="g_73">
                                    <path aria-label="Date: May; Price: 725.256596419; model: RTX 3060" role="graphics-symbol" aria-roledescription="line mark" d="M0,167.766L1.146,168.924L2.293,168.885L3.439,169.606L4.586,170.175L5.732,169.922L6.879,169.237L8.025,168.7L9.172,168.966L10.318,168.834L11.465,168.382L12.611,168.091L13.758,167.934L14.904,166.909L16.051,166.691L17.197,166.323L18.344,166.368L19.49,166.848L20.637,167.074L22.93,167.077L24.076,167.012L25.223,167.008L26.369,166.988L27.516,166.94L28.662,166.933L29.809,166.965L30.955,167.304L32.102,166.905L33.248,166.849L34.395,166.648L35.541,166.452L36.688,166.205L37.834,166.169L38.981,166.127L40.127,166.296L41.274,166.854L42.42,167.381L43.567,167.832L44.713,167.914L45.86,168.008L47.006,167.804L48.153,167.026L49.299,166.627L50.446,166.923L51.592,167.019L52.739,167.324L53.885,167.518L55.032,168.18L56.178,169.119L57.325,169.895L58.471,170.032L59.618,169.833L60.764,169.623L61.911,169.505L63.057,170.011L64.204,170.594L65.35,170.59L66.497,170.755L67.643,170.65L68.79,170.724L69.936,170.73L71.083,171.544L72.229,172.22L73.376,172.384L74.522,172.303L75.669,171.75L76.815,171.727L77.962,172.01L79.108,172.418L80.255,172.706L81.401,172.572L82.548,172.621L83.694,172.629L84.841,172.761L85.987,172.624L87.134,172.268L88.28,172.244L89.427,172.144L90.573,172.455L91.72,172.808L92.866,172.875L94.013,172.613L95.159,172.653L96.306,172.639L97.452,172.133L98.599,172.281L99.745,172.253L100.892,172.469L102.038,172.512L103.185,172.613L104.331,172.648L105.478,172.723L106.624,172.716L107.771,172.585L108.917,172.485L110.064,171.947L111.21,172.06L112.357,172.522L113.503,173.037L114.65,172.733L115.796,172.741L116.943,172.472L118.089,172.623L119.236,172.784L120.382,172.83L121.529,172.527L122.675,172.288L123.822,172.429L124.968,172.471L126.115,172.605L127.261,172.764L128.408,172.83L129.554,173.168L130.701,173.573L131.847,173.497L132.994,173.495L134.14,173.551L135.287,173.054L136.433,173.007L137.58,172.606L138.726,172.293L139.873,172.392L141.019,172.404L142.166,172.591L143.312,173.149L144.459,173.033L145.605,172.839L146.752,172.682L147.898,172.386L149.045,172.464L150.191,172.428L151.338,172.078L152.484,171.975L153.631,172.117L154.777,172.234L155.924,172.246L157.07,172.242L158.217,172.33L159.363,172.457L160.51,172.227L161.656,172.086L162.803,171.705L163.949,171.472L165.096,171.623L166.242,171.468L167.389,171.15L168.535,171.048L169.682,170.743L170.828,170.715L171.975,170.793L173.121,170.896L174.268,171.104L175.414,171.389L176.561,171.333L177.707,171.177L178.854,171.118L180,171.129L181.146,171.103L182.293,171.219L183.439,171.708L184.586,172.189L185.732,172.056L186.879,172.023L188.025,171.984L189.172,171.876L190.318,171.731L191.465,171.271L192.611,171.369L193.758,171.077L194.904,170.73L196.051,170.356L197.197,170.095L198.344,169.948L199.49,170.144L200.637,170.38L201.783,170.126L202.93,169.77L204.076,169.874L205.223,170.153L206.369,169.952L207.516,169.628L208.662,169.54L209.809,169.4L210.955,168.932L212.102,168.626L213.248,168.501L214.395,168.249L215.541,168.319L216.688,167.989L217.834,167.518L218.981,167.192L220.127,167.306L221.274,167.619L222.42,167.54L223.567,167.736L224.713,168.209L225.86,168.161L227.006,167.904L228.153,168.434L229.299,168.466L230.446,168.577L231.592,168.836L232.739,168.438L233.885,167.736L235.032,167.227L236.178,167.37L237.325,167.477L238.471,167.863L239.618,168.157L240.764,168.515L241.911,168.789L243.057,168.662L244.204,168.341L245.35,167.971L246.497,167.76L247.643,168.015L248.79,167.493L249.936,167.841L251.083,167.546L252.229,167.719L253.376,167.9L254.522,167.632L255.669,167.704L256.815,167.562L257.962,167.532L259.108,167.75L260.255,167.572L261.401,167.756L262.548,168.339L263.694,169.159L264.841,168.441L265.987,167.811L267.134,168.452L268.28,169.303L269.427,169.269L270.573,169.692L271.72,170.506L272.866,170.188L274.013,169.529L275.159,168.9L276.306,168.15L277.452,167.84L278.599,167.511L279.745,167.36L280.892,167.398L282.038,167.228L283.185,166.949L284.331,166.748L285.478,166.599L286.624,166.551L287.771,166.357L288.917,166.398L290.064,166.292L291.21,167.016L292.357,167.614L293.503,167.693L294.65,167.766L295.796,167.88L296.943,167.831L298.089,167.384L299.236,167.553L300.382,167.764L301.529,168.008L302.675,168.055L303.822,167.924L304.968,167.986L306.115,168.544L307.261,168.519L308.408,168.374L309.554,168.156L310.701,167.718L311.847,167.943L312.994,168.19L314.14,168.223L315.287,168.341L316.433,168.589L317.58,168.632L318.726,168.877L319.873,169.301L321.019,169.818L322.166,169.87L323.312,169.543L324.459,169.576L325.605,169.514L326.752,169.085L327.898,168.622L329.045,168.65L330.191,168.961L331.338,169.453L332.484,169.808L333.631,170.24L334.777,170.71L335.924,170.997L337.07,171.227L338.217,171.467L339.363,171.227L340.51,171.096L341.656,171.008L342.803,170.674L343.949,169.998L345.096,170.049L346.242,170.431L347.389,170.87L348.535,171.333L349.682,171.518L350.828,171.446L351.975,171.203L353.121,170.867L354.268,170.872L355.414,171.027L356.561,171.602L357.707,171.676L358.854,171.617L360,171.186L361.146,171.313L362.293,171.708L363.439,172.435L364.586,172.727L365.732,172.929L366.879,173.101L368.025,173.3L369.172,173.766L370.318,174.185L371.465,174.59L372.611,174.738L373.758,174.568L374.904,174.39L376.051,174.283L377.197,174.203L378.344,174.357L379.49,174.62L380.637,175.117L381.783,175.142L382.93,175.351L384.076,175.037L385.223,175.131L386.369,175.52L387.516,175.618L388.662,175.697L389.809,175.492L390.955,175.714L392.102,175.771L393.248,175.921L394.395,176.014L395.541,176.058L396.688,175.931L397.834,175.658L398.981,175.502L400.127,175.339L401.274,175.448L402.42,175.488L403.567,175.685L404.713,176L405.86,176.151L407.006,176.693L408.153,176.88L409.299,177.05L410.446,176.949L411.592,176.86L412.739,176.857L413.885,176.879L415.032,177.126L416.178,177.19L417.325,177.018L418.471,176.926L419.618,176.676L420.764,176.721L421.911,176.908L423.057,177.301L424.204,177.427L425.35,177.644L426.497,177.59L427.643,177.09L428.79,176.955L429.936,177.071L431.083,177.044L432.229,176.74L433.376,176.499L434.522,176.723L435.669,176.855L436.815,177.079L437.962,177.147L439.108,177.127L440.255,177L441.401,176.848L442.548,176.934L443.694,177.022L444.841,177.295L445.987,177.297L447.134,177.174L448.28,177.134L449.427,177.427L450.573,177.923L451.72,177.876L452.866,177.891L454.013,177.717L455.159,177.735L456.306,177.629L457.452,177.574L458.599,177.602L459.745,177.854L460.892,178.378L462.038,178.378L463.185,178.184L464.331,178.317L465.478,178.741L466.624,178.831L467.771,178.612L468.917,178.349L470.064,178.376L471.21,178.279L472.357,178.285L473.503,178.248L474.65,178.112L475.796,178.385L476.943,178.589L478.089,178.735L479.236,178.49L480.382,178.355L481.529,178.205L482.675,178.044L483.822,178.461L484.968,178.955L486.115,178.84L487.261,178.694L488.408,178.65L489.554,178.712L490.701,178.753L491.847,178.61L492.994,178.68L494.14,178.717L495.287,178.813L496.433,178.556L497.58,178.333L498.726,178.157L499.873,178.342L501.019,178.396L502.166,178.455L503.312,178.376L504.459,178.4L505.605,178.408L506.752,178.114L507.898,178.222L509.045,178.343L510.191,178.39L511.338,178.581L512.484,178.882L513.631,178.869L514.777,179.101L515.924,178.915L517.07,178.881L518.217,178.821L519.363,179.01L520.51,178.583L521.656,177.782L522.803,178.394L523.949,179.02L525.096,179.277L526.242,179.105L527.389,179.064L528.535,178.902L529.682,178.086L530.828,177.748L531.975,177.759L533.121,177.77L534.268,177.767L535.414,177.877L536.561,177.95L537.707,177.911L538.854,177.953L540,177.953L541.146,177.956L542.293,178.168L543.439,178.122L544.586,178.106L545.732,178.19L550.318,178.215L552.611,178.678L554.904,178.85L556.051,179.03L557.197,178.942L558.344,178.959L559.49,178.935L560.637,178.948L561.783,178.973L562.93,179.054L564.076,179.078L565.223,178.99L566.369,178.901L567.516,178.961" stroke="#a6cee3" stroke-width="2" id="path_51" />
                                </g>
                            </g>
                            <path class="foreground" aria-hidden="true" d="" display="none" id="path_50" />
                        </g>
                        <g transform="translate(0,0)" id="g_68">
                            <path class="background" aria-hidden="true" d="M0,0h600v200h-600Z" id="path_49" />
                            <g id="g_69">
                                <g class="mark-line role-mark layer_0_marks" role="graphics-object" aria-roledescription="line mark container" id="g_70">
                                    <path aria-label="Date: Jun; Price: 1163.84126984; model: RTX 3070 Ti" role="graphics-symbol" aria-roledescription="line mark" d="M41.274,148.274L42.42,150.871L43.567,152.815L44.713,153.413L45.86,152.435L47.006,151.286L48.153,151.24L49.299,151.096L50.446,150.957L51.592,150.524L52.739,150.537L53.885,150.855L55.032,151.741L56.178,152.417L57.325,152.99L58.471,153.712L59.618,154.118L60.764,154.66L61.911,154.61L63.057,154.821L64.204,155.095L65.35,155.84L66.497,156.485L67.643,156.429L68.79,156.483L69.936,157.301L71.083,157.48L72.229,158.092L73.376,159.105L74.522,159.01L75.669,158.886L76.815,159.183L77.962,159.234L79.108,159.118L80.255,159.256L81.401,159.417L82.548,159.183L83.694,158.601L84.841,158.345L85.987,157.895L87.134,157.468L88.28,158.123L89.427,158.758L90.573,159.326L91.72,159.361L92.866,159.455L94.013,159.24L95.159,159.066L96.306,158.559L97.452,158.349L98.599,158.467L99.745,158.798L100.892,158.411L102.038,158.138L103.185,157.885L104.331,158.011L105.478,157.6L106.624,157.399L107.771,157.818L108.917,158.06L110.064,157.871L111.21,157.899L112.357,157.376L113.503,157.174L114.65,156.743L115.796,156.966L118.089,157.456L119.236,158.563L120.382,158.931L121.529,158.799L122.675,158.615L123.822,158.595L124.968,158.313L126.115,157.957L127.261,157.509L128.408,157.519L129.554,157.834L130.701,157.231L131.847,156.658L132.994,156.66L134.14,156.114L135.287,155.905L136.433,155.631L137.58,155.562L138.726,155.394L139.873,155.6L141.019,155.619L142.166,155.544L143.312,155.59L144.459,155.477L145.605,155.365L146.752,155.131L147.898,155.087L149.045,155.058L150.191,154.729L151.338,153.897L152.484,153.08L153.631,152.56L154.777,152.497L155.924,152.264L157.07,152.224L158.217,152.501L159.363,152.531L160.51,152.715L161.656,152.89L162.803,152.976L163.949,153.193L165.096,153.667L166.242,153.737L167.389,153.608L168.535,153.665L169.682,153.44L170.828,153.122L171.975,152.967L173.121,153.164L174.268,153.458L175.414,153.992L176.561,154.227L177.707,154.894L178.854,155.203L180,154.91L181.146,154.614L182.293,154.465L183.439,153.812L184.586,153.947L185.732,153.854L186.879,153.809L188.025,153.568L189.172,153.291L190.318,152.832L191.465,152.942L192.611,152.794L193.758,152.514L194.904,151.783L196.051,151.415L197.197,151.072L198.344,151.012L199.49,150.802L200.637,151.11L201.783,150.598L202.93,150.644L204.076,150.458L205.223,150.016L206.369,149.266L207.516,149.169L208.662,148.857L209.809,148.83L210.955,148.779L212.102,149.069L213.248,149.241L214.395,149.069L215.541,149.332L216.688,148.937L217.834,148.374L218.981,148.222L220.127,147.919L221.274,147.974L222.42,147.761L223.567,147.732L224.713,147.751L225.86,147.229L227.006,147.35L228.153,148.257L229.299,148.28L230.446,148.424L231.592,148.539L232.739,147.259L233.885,146.35L235.032,146.468L236.178,146.296L237.325,146.198L238.471,146.308L239.618,146.751L240.764,147.423L241.911,147.901L243.057,148.883L244.204,148.41L245.35,148.008L246.497,147.974L247.643,147.39L248.79,146.917L249.936,146.454L251.083,146.728L252.229,147.12L253.376,147.257L254.522,147.632L255.669,147.962L256.815,148.167L257.962,147.758L259.108,146.756L260.255,146.692L261.401,146.767L262.548,146.195L263.694,145.575L264.841,146.087L265.987,145.55L267.134,145.517L268.28,145.696L269.427,145.792L270.573,146.235L271.72,146.876L272.866,147.062L274.013,147.92L275.159,148.039L276.306,147.245L277.452,147.232L278.599,146.59L279.745,145.783L280.892,145.842L282.038,145.452L283.185,145.424L284.331,145.454L285.478,145.5L286.624,145.399L287.771,145.513L288.917,145.938L290.064,146.022L291.21,146.24L292.357,146.343L293.503,146.617L294.65,146.983L295.796,147.537L296.943,147.767L298.089,148.019L299.236,148.168L300.382,148.185L301.529,147.835L302.675,147.893L303.822,148.216L304.968,148.715L306.115,148.718L307.261,148.521L308.408,149.045L309.554,149.131L310.701,149.168L311.847,149.046L312.994,149.242L314.14,149.654L315.287,149.66L316.433,149.788L317.58,150L318.726,150.588L319.873,151.126L321.019,151.675L322.166,152.697L323.312,152.675L324.459,152.749L325.605,152.691L326.752,152.925L327.898,153.283L329.045,153.831L330.191,154.455L331.338,155.071L332.484,155.299L333.631,155.258L334.777,155.248L335.924,155.349L337.07,155.415L338.217,155.919L339.363,156.264L340.51,156.257L341.656,156.27L342.803,156.122L343.949,155.881L345.096,155.749L346.242,155.474L347.389,155.519L348.535,155.425L349.682,155.453L350.828,155.423L351.975,155.177L353.121,155.262L354.268,154.958L355.414,155.65L356.561,155.795L357.707,156.263L358.854,155.759L360,155.517L361.146,156.066L362.293,156.57L363.439,156.675L364.586,156.023L365.732,155.365L366.879,155.097L368.025,155.34L369.172,156.101L370.318,157.952L371.465,158.585L372.611,158.785L373.758,158.918L374.904,158.671L376.051,158.71L377.197,158.62L378.344,158.986L379.49,159.5L380.637,159.807L381.783,160.052L382.93,159.866L384.076,159.757L385.223,159.918L386.369,160.056L387.516,160.037L388.662,160.067L389.809,160.283L390.955,160.503L392.102,160.564L393.248,160.839L394.395,160.943L395.541,160.944L396.688,161.065L397.834,161.048L398.981,160.778L400.127,160.621L401.274,160.448L402.42,160.841L403.567,160.906L404.713,161.023L405.86,161.03L407.006,161.259L408.153,160.876L409.299,160.838L410.446,160.967L411.592,161.247L412.739,161.35L413.885,161.698L415.032,161.925L416.178,161.958L417.325,161.876L418.471,161.737L419.618,161.533L420.764,161.394L421.911,161.33L423.057,161.25L424.204,161.144L425.35,161.213L426.497,161.249L427.643,161.146L428.79,161.095L429.936,160.962L431.083,160.874L432.229,160.74L433.376,160.541L434.522,161.138L435.669,161.311L436.815,161.314L439.108,161.423L440.255,161.363L441.401,161.158L442.548,161.238L443.694,161.278L444.841,161.504L445.987,161.612L447.134,161.942L448.28,162.062L449.427,162.229L450.573,162.503L451.72,162.182L452.866,162.148L454.013,162.159L455.159,162.051L456.306,161.852L457.452,161.972L458.599,161.981L459.745,162.009L460.892,162.219L462.038,162.127L463.185,161.964L464.331,161.961L465.478,162.349L466.624,162.762L467.771,163.058L468.917,162.853L470.064,162.934L471.21,163.018L472.357,163.082L473.503,162.904L474.65,162.848L475.796,162.552L476.943,162.454L478.089,162.764L479.236,162.772L480.382,163.059L481.529,162.981L482.675,163.067L483.822,162.411L484.968,162.586L486.115,162.651L487.261,163.153L488.408,163.167L489.554,162.804L490.701,162.559L491.847,162.299L492.994,162.517L494.14,162.738L495.287,162.917L496.433,163.183L497.58,163.66L498.726,163.863L499.873,163.507L501.019,163.521L502.166,163.609L503.312,163.595L504.459,163.624L505.605,163.727L506.752,163.829L507.898,163.711L509.045,163.841L510.191,163.817L511.338,163.975L512.484,164.423L513.631,164.257L514.777,164.1L515.924,164.068L517.07,164.436L518.217,164.483L519.363,164.343L520.51,164.223L521.656,163.85L522.803,163.495L523.949,163.419L525.096,164.002L526.242,164.168L527.389,164.264L528.535,164.506L529.682,165.251L530.828,165.971L531.975,166.001L533.121,165.905L534.268,165.994L535.414,166.004L536.561,165.976L537.707,165.993L538.854,165.624L540,165.513L541.146,165.68L542.293,165.669L543.439,165.747L544.586,165.747L545.732,165.692L551.465,165.649L556.051,165.638L557.197,165.627L558.344,165.617L559.49,165.581L560.637,165.567L561.783,165.617L562.93,165.66L564.076,165.693L565.223,165.583L566.369,165.321L567.516,165.13" stroke="#33a02c" stroke-width="2" id="path_48" />
                                </g>
                            </g>
                            <path class="foreground" aria-hidden="true" d="" display="none" id="path_47" />
                        </g>
                        <g transform="translate(0,0)" id="g_65">
                            <path class="background" aria-hidden="true" d="M0,0h600v200h-600Z" id="path_46" />
                            <g id="g_66">
                                <g class="mark-line role-mark layer_0_marks" role="graphics-object" aria-roledescription="line mark container" id="g_67">
                                    <path aria-label="Date: Jun; Price: 2555.4; model: RTX 3080 Ti" role="graphics-symbol" aria-roledescription="line mark" d="M33.248,86.427L34.395,92.051L35.541,95.416L36.688,96.267L37.834,97.73L38.981,99.417L40.127,101.881L41.274,102.746L42.42,103.404L43.567,105.228L44.713,106.47L45.86,107.371L47.006,108.142L48.153,109.004L49.299,110.672L50.446,111.49L51.592,112.05L52.739,113.189L53.885,113.949L55.032,114.498L56.178,115.623L57.325,115.884L58.471,115.96L59.618,116.293L60.764,116.719L61.911,116.968L63.057,118.278L64.204,120.022L65.35,120.721L66.497,121.011L67.643,121.485L68.79,122.089L69.936,122.336L71.083,122.553L72.229,124.193L73.376,124.951L74.522,124.699L75.669,124.642L77.962,124.292L79.108,124.279L80.255,124.49L81.401,124.676L82.548,124.515L83.694,125.537L84.841,125.876L85.987,126.115L87.134,125.998L88.28,124.917L89.427,124.894L90.573,124.945L91.72,124.153L94.013,123.468L95.159,122.316L96.306,121.696L97.452,122.063L98.599,122.419L99.745,123.738L100.892,124.856L102.038,125.303L103.185,126.647L104.331,127.308L105.478,127.126L106.624,127.514L107.771,127.445L108.917,127.498L110.064,127.446L111.21,127.236L112.357,126.673L113.503,126.739L114.65,126.786L115.796,126.804L116.943,126.069L118.089,126.318L119.236,126.753L120.382,127.034L121.529,127.081L122.675,127.222L123.822,128.138L124.968,128.03L126.115,127.637L127.261,128.436L128.408,129.533L129.554,129.364L130.701,129.627L131.847,129.275L132.994,129.222L134.14,128.773L135.287,128.208L136.433,128.024L137.58,128.291L138.726,129.547L139.873,129.84L141.019,129.604L142.166,129.525L143.312,129.782L144.459,129.418L145.605,127.653L146.752,124.833L147.898,124.106L149.045,123.474L150.191,122.563L151.338,122.394L152.484,122.771L153.631,123.261L154.777,123.089L155.924,122.394L157.07,121.854L158.217,121.918L159.363,122.147L160.51,122.443L161.656,123.211L162.803,123.654L163.949,123.195L165.096,123.334L166.242,122.929L167.389,122.027L168.535,121.989L169.682,121.755L170.828,121.879L171.975,122.048L173.121,121.814L174.268,122.207L175.414,122.425L176.561,122.461L177.707,122.82L178.854,123.482L180,123.377L181.146,123.633L182.293,122.847L183.439,122.302L184.586,122.066L185.732,121.338L186.879,120.347L188.025,119.719L189.172,119.521L190.318,119.611L191.465,119.297L192.611,119.603L193.758,119.682L194.904,119.935L196.051,120.611L197.197,120.345L198.344,120.125L199.49,119.094L200.637,117.686L201.783,116.228L202.93,116.408L204.076,116.202L205.223,116.534L206.369,116.727L207.516,117.701L208.662,116.152L209.809,116.124L210.955,116.554L212.102,116.411L213.248,117.506L214.395,116.796L215.541,116.161L216.688,115.927L217.834,115.519L218.981,115.349L220.127,115.255L221.274,115.004L222.42,114.614L223.567,114.429L224.713,113.807L225.86,112.759L227.006,112.964L228.153,112.626L229.299,112.854L230.446,113.269L231.592,113.81L232.739,113.005L233.885,112.764L235.032,113.008L236.178,113.744L237.325,114.018L238.471,114.038L239.618,113.839L240.764,113.688L241.911,112.936L243.057,112.593L244.204,113.018L245.35,113.473L246.497,113.23L247.643,113.868L248.79,114.601L249.936,114.582L251.083,114.403L252.229,113.743L253.376,114.165L254.522,114.209L255.669,114.071L256.815,113.581L257.962,112.64L259.108,112.082L260.255,111.954L261.401,111.897L262.548,111.705L263.694,110.908L264.841,109.83L265.987,108.633L267.134,108.765L268.28,108.938L269.427,108.925L270.573,109.531L271.72,110.368L272.866,110.994L274.013,111.342L275.159,111.275L276.306,110.722L277.452,110.27L278.599,110.008L279.745,109.055L280.892,109.381L282.038,109.109L283.185,109.141L284.331,109.351L285.478,109.587L286.624,109.473L287.771,111.344L288.917,111.076L290.064,111.635L291.21,112.463L292.357,112.625L293.503,112.493L294.65,111.732L295.796,111.168L296.943,111.846L298.089,112.357L299.236,112.023L300.382,112.205L301.529,112.254L302.675,112.504L303.822,112.56L304.968,112.601L306.115,112.833L307.261,113.287L308.408,113.352L309.554,113.369L310.701,113.303L311.847,113.436L312.994,114.008L314.14,114.178L315.287,114.182L316.433,114.287L317.58,114.546L318.726,115.057L319.873,115.416L321.019,115.617L322.166,116.503L323.312,116.751L324.459,117.525L325.605,117.617L326.752,117.598L327.898,117.483L329.045,117.854L330.191,117.909L331.338,118.121L332.484,118.647L333.631,118.518L334.777,118.722L335.924,118.995L337.07,119.335L338.217,119.181L339.363,119.082L340.51,119.367L341.656,119.477L342.803,119.715L343.949,119.747L345.096,120.236L346.242,120.382L347.389,120.313L348.535,120.617L349.682,120.71L350.828,121.073L351.975,121.448L353.121,121.031L354.268,120.308L355.414,120.326L356.561,120.899L357.707,120.74L358.854,120.555L360,122.181L361.146,122.497L362.293,122.702L363.439,122.439L364.586,123.451L365.732,123.761L366.879,123.785L368.025,124.267L369.172,124.531L370.318,124.688L371.465,124.812L372.611,125.492L373.758,125.934L374.904,126.001L376.051,126.482L377.197,126.678L378.344,126.902L379.49,127.095L380.637,126.985L381.783,127.112L382.93,126.88L384.076,126.995L385.223,127.484L386.369,126.865L387.516,126.601L388.662,127.085L389.809,127.736L390.955,128.407L392.102,128.262L393.248,128.379L394.395,128.53L395.541,128.815L396.688,128.935L397.834,129.211L398.981,128.695L400.127,129.073L401.274,128.93L402.42,128.124L403.567,128.491L404.713,129.245L405.86,129.796L407.006,130.177L408.153,130.833L409.299,130.748L410.446,131.167L411.592,131.809L412.739,132.283L413.885,132.906L415.032,133.518L416.178,133.95L417.325,134.316L418.471,134.34L419.618,134.245L420.764,134.133L421.911,134.225L423.057,134.103L424.204,133.39L425.35,133.072L426.497,133.109L427.643,132.685L428.79,132.079L429.936,131.035L431.083,130.909L432.229,130.677L433.376,130.26L434.522,130.251L435.669,130.461L436.815,130.532L437.962,130.584L439.108,130.655L440.255,130.384L441.401,130.896L442.548,131.088L443.694,131.537L444.841,132.24L445.987,132.67L447.134,132.601L448.28,132.509L449.427,133.227L450.573,134.343L451.72,134.773L452.866,134.508L454.013,134.245L455.159,133.705L456.306,132.889L457.452,132.686L458.599,132.848L459.745,133.584L460.892,135.058L462.038,136.62L463.185,137.274L464.331,137.031L465.478,136.28L466.624,136.214L467.771,136.432L468.917,136.159L470.064,136.181L471.21,136.102L472.357,136.455L473.503,136.627L474.65,136.254L475.796,136.306L476.943,134.498L478.089,132.273L479.236,131.077L480.382,131.168L481.529,131.157L482.675,130.94L483.822,133.222L484.968,134.633L486.115,135.976L487.261,135.949L488.408,135.884L489.554,134.497L490.701,134.707L491.847,135.276L492.994,137.662L494.14,138.301L495.287,138.553L496.433,139.332L497.58,138.865L498.726,138.977L499.873,140.021L501.019,141.34L502.166,141.179L503.312,141.356L504.459,140.059L505.605,139.402L506.752,139.172L507.898,139.598L509.045,140.543L510.191,140.67L511.338,141.048L512.484,142.523L513.631,141.64L514.777,141.637L515.924,141.599L517.07,141.283L518.217,141.536L519.363,142.14L520.51,144.08L521.656,144.767L522.803,145.156L523.949,145.445L525.096,145.271L526.242,145.014L527.389,144.713L528.535,144.618L529.682,144.15L530.828,144.309L531.975,144.369L533.121,144.438L534.268,144.454L535.414,144.445L536.561,144.293L537.707,144.247L538.854,144.084L540,143.749L541.146,143.999L542.293,143.945L543.439,144.03L544.586,144.206L545.732,144.314L551.465,144.377L554.904,144.247L556.051,144.347L557.197,144.307L559.49,144.856L560.637,145.009L561.783,145.403L562.93,145.835L564.076,145.822L566.369,145.96" stroke="#ff7f00" stroke-width="2" id="path_45" />
                                </g>
                            </g>
                            <path class="foreground" aria-hidden="true" d="" display="none" id="path_44" />
                        </g>
                        <g transform="translate(0,0)" id="g_62">
                            <path class="background" aria-hidden="true" d="M0,0h600v200h-600Z" id="path_43" />
                            <g id="g_63">
                                <g class="mark-line role-mark layer_0_marks" role="graphics-object" aria-roledescription="line mark container" id="g_64">
                                    <path aria-label="Date: May; Price: 1137.72716667; model: RTX 3070" role="graphics-symbol" aria-roledescription="line mark" d="M0,149.434L1.146,147.309L2.293,148.464L3.439,149.128L4.586,148.903L5.732,150.587L6.879,150.827L8.025,150.845L9.172,150.86L10.318,150.882L11.465,151.169L13.758,151.038L14.904,150.245L16.051,148.935L17.197,147.891L18.344,148.425L19.49,148.132L20.637,149.669L21.783,150.746L22.93,150.929L24.076,152.38L25.223,152.26L26.369,150.26L27.516,149.425L28.662,148.612L29.809,147.097L30.955,147.642L32.102,148.358L33.248,147.83L34.395,146.92L35.541,147.528L36.688,147.684L37.834,148.571L38.981,149.661L40.127,149.766L41.274,149.401L42.42,149.064L43.567,148.779L44.713,148.559L45.86,149.17L47.006,150.124L48.153,150.524L49.299,150.537L50.446,152.134L51.592,153.579L52.739,153.704L53.885,153.631L55.032,153.752L56.178,154.423L57.325,155.567L58.471,156.84L59.618,156.952L60.764,156.921L61.911,156.853L63.057,157L64.204,157.503L65.35,157.892L66.497,157.064L67.643,155.978L68.79,155.518L69.936,155.785L71.083,156.686L72.229,158.261L73.376,159.126L74.522,159.576L75.669,159.197L76.815,159.694L77.962,159.78L79.108,159.601L80.255,159.335L81.401,159.069L82.548,158.878L83.694,158.964L84.841,158.92L85.987,158.913L87.134,158.232L88.28,158.168L89.427,158.022L90.573,158.123L91.72,158.495L92.866,158.269L94.013,158.483L95.159,158.706L96.306,159.305L97.452,159.021L98.599,158.253L99.745,157.679L100.892,157.203L102.038,157.544L103.185,158.284L104.331,159.119L105.478,159.252L106.624,158.697L107.771,157.736L108.917,157.419L110.064,157.22L111.21,157.465L112.357,158.052L113.503,158.864L114.65,159.079L115.796,158.909L116.943,158.596L118.089,158.326L119.236,157.755L120.382,157.014L121.529,156.53L122.675,156.825L123.822,157.483L124.968,157.893L126.115,158.27L127.261,159.148L128.408,159.937L129.554,160.159L130.701,159.781L131.847,159.479L132.994,159.483L134.14,159.231L135.287,158.926L136.433,158.91L137.58,158.881L138.726,158.704L139.873,158.637L141.019,158.671L142.166,158.649L143.312,158.799L144.459,158.719L145.605,158.337L146.752,158.332L147.898,158.357L149.045,158.259L150.191,158.334L151.338,158.234L152.484,158.054L153.631,158.343L154.777,158.226L155.924,158.17L157.07,158.218L158.217,158.404L159.363,158.259L160.51,158.145L161.656,158.036L162.803,157.909L163.949,157.984L165.096,158.059L166.242,157.89L167.389,157.292L168.535,156.826L169.682,156.814L170.828,156.936L171.975,156.897L173.121,156.895L174.268,156.857L175.414,156.587L176.561,155.994L177.707,155.992L178.854,155.915L180,155.949L181.146,155.886L182.293,155.508L183.439,155.024L184.586,155.509L185.732,155.323L186.879,154.838L188.025,154.922L189.172,154.743L190.318,154.502L191.465,153.975L192.611,152.514L193.758,151.729L194.904,151.499L196.051,151.471L197.197,151.32L198.344,151.293L199.49,152.743L200.637,153.547L201.783,153.406L202.93,153.589L204.076,153.73L205.223,153.435L206.369,152.975L207.516,153.263L208.662,152.402L209.809,152.672L210.955,153.483L212.102,153.684L213.248,153.81L214.395,153.862L215.541,153.1L216.688,151.903L217.834,151.294L218.981,150.953L220.127,150.824L221.274,150.929L222.42,150.691L223.567,150.434L224.713,150.672L225.86,150.969L227.006,151.003L228.153,151.638L229.299,151.332L230.446,151.171L231.592,151.835L232.739,152.083L233.885,151.582L235.032,152.251L236.178,152.242L237.325,151.883L238.471,151.533L239.618,151.441L240.764,151.867L241.911,151.543L243.057,151.383L244.204,151.098L245.35,151.218L246.497,151.314L247.643,151.34L248.79,151.293L249.936,151.977L251.083,153.188L252.229,153.47L253.376,153.131L254.522,152.333L255.669,151.587L256.815,150.872L257.962,150.822L259.108,151.291L260.255,151.428L261.401,151.741L262.548,151.64L263.694,151.905L264.841,152.564L265.987,151.107L267.134,150.606L268.28,151.005L269.427,151.637L270.573,151.815L271.72,152.658L272.866,152.661L274.013,152.267L275.159,152.012L276.306,151.183L277.452,151.092L278.599,151.273L279.745,150.466L280.892,150.216L282.038,151.151L283.185,151.226L284.331,151.636L285.478,152.048L286.624,151.338L287.771,152.115L288.917,152.18L290.064,151.734L291.21,152.29L292.357,152.527L293.503,152.439L294.65,152.072L295.796,152.154L296.943,152.61L298.089,152.66L299.236,153.247L300.382,154.099L301.529,154.131L302.675,153.886L303.822,153.761L304.968,153.533L306.115,153.322L307.261,153.074L308.408,153.151L309.554,153.063L310.701,152.706L311.847,152.856L312.994,152.786L314.14,152.627L315.287,152.425L316.433,152.602L317.58,152.748L318.726,153.216L319.873,153.602L321.019,153.41L322.166,153.627L323.312,154.105L324.459,154.22L325.605,154.282L326.752,154.356L327.898,154.595L329.045,154.553L330.191,155.083L331.338,155.092L332.484,155.399L333.631,155.807L334.777,156.266L335.924,156.838L337.07,157.502L338.217,157.565L339.363,157.542L340.51,157.286L341.656,157.08L342.803,156.864L343.949,156.133L345.096,155.653L346.242,155.796L347.389,155.939L348.535,155.939L349.682,156.257L350.828,156.469L351.975,156.335L353.121,156.415L354.268,156.312L355.414,156.703L356.561,157.121L357.707,157.354L358.854,157.817L360,157.698L361.146,157.657L362.293,157.868L363.439,158.262L364.586,158.816L365.732,159.181L366.879,159.468L368.025,159.719L369.172,160.16L370.318,160.833L371.465,161.196L372.611,161.287L373.758,161.376L374.904,161.07L376.051,161.407L377.197,160.96L378.344,161.081L379.49,161.129L380.637,161.134L381.783,160.892L382.93,160.365L384.076,160.556L385.223,160.48L386.369,161.302L387.516,161.95L388.662,162.583L389.809,163.277L390.955,163.105L392.102,163.132L393.248,162.933L394.395,162.755L395.541,162.607L396.688,162.748L397.834,162.811L398.981,162.747L400.127,162.358L401.274,162.609L402.42,162.365L403.567,162.103L404.713,161.947L405.86,161.915L407.006,161.862L408.153,161.922L409.299,162.15L410.446,162.144L411.592,162.028L412.739,162.313L413.885,162.354L415.032,162.532L416.178,162.608L417.325,162.598L418.471,162.805L419.618,163.029L420.764,163.387L421.911,163.915L423.057,164.069L424.204,163.941L425.35,164.233L426.497,164.431L427.643,164.612L428.79,164.827L429.936,164.873L431.083,165.086L432.229,165.587L433.376,165.915L434.522,166.224L435.669,165.918L436.815,165.828L437.962,165.781L439.108,165.949L440.255,165.978L441.401,166.291L442.548,166.822L443.694,166.66L444.841,166.167L445.987,166.101L447.134,166.162L448.28,165.571L449.427,165.493L450.573,165.844L451.72,167.016L452.866,167.33L454.013,167.196L455.159,167.352L456.306,167.387L457.452,167.041L458.599,167.054L459.745,167.311L460.892,167.684L462.038,167.417L463.185,167.133L464.331,166.793L465.478,167.439L466.624,167.701L467.771,167.155L468.917,166.627L470.064,166.285L471.21,166.518L472.357,166.432L473.503,166.196L474.65,166.486L475.796,166.797L476.943,167.21L478.089,167.412L479.236,167.83L480.382,168.259L481.529,168.263L482.675,168.402L483.822,168.012L484.968,167.834L486.115,167.979L487.261,168.354L488.408,168.343L489.554,168.367L490.701,168.301L491.847,168.155L492.994,168.06L494.14,168.149L495.287,168.035L496.433,168.381L497.58,168.281L498.726,168.419L499.873,168.41L501.019,168.577L502.166,168.301L503.312,168.227L504.459,168.005L505.605,168.154L506.752,168.341L507.898,168.542L509.045,169.058L510.191,169.315L511.338,169.242L512.484,169.412L513.631,169.495L514.777,169.748L515.924,169.683L517.07,169.66L518.217,169.67L519.363,169.589L520.51,169.205L521.656,168.747L522.803,169.067L523.949,169.316L525.096,169.474L526.242,169.711L527.389,169.807L528.535,169.507L529.682,169.321L530.828,169.262L531.975,169.491L533.121,169.547L534.268,169.577L535.414,169.504L536.561,169.649L537.707,169.695L538.854,169.786L540,169.725L541.146,169.592L542.293,169.622L543.439,169.662L544.586,169.648L551.465,169.708L552.611,169.725L554.904,169.773L556.051,169.841L557.197,169.839L558.344,169.876L559.49,170.004L561.783,170.005" stroke="#b2df8a" stroke-width="2" id="path_42" />
                                </g>
                            </g>
                            <path class="foreground" aria-hidden="true" d="" display="none" id="path_41" />
                        </g>
                        <g transform="translate(0,0)" id="g_59">
                            <path class="background" aria-hidden="true" d="M0,0h600v200h-600Z" id="path_40" />
                            <g id="g_60">
                                <g class="mark-line role-mark layer_0_marks" role="graphics-object" aria-roledescription="line mark container" id="g_61">
                                    <path aria-label="Date: May; Price: 1871.22222222; model: RTX 3080" role="graphics-symbol" aria-roledescription="line mark" d="M0,116.835L1.146,117.353L2.293,120.224L5.732,123.711L6.879,124.307L8.025,123.612L10.318,123.436L11.465,123.53L13.758,122.999L14.904,123.706L16.051,123.738L17.197,122.465L18.344,122.037L19.49,121.4L20.637,122.314L21.783,122.233L22.93,121.653L24.076,120.915L25.223,121.053L26.369,121.444L27.516,121.628L28.662,120.903L29.809,120.476L30.955,122.715L32.102,122.117L33.248,122.162L34.395,123.511L35.541,122.058L36.688,121.915L37.834,122.808L38.981,123.455L40.127,123.461L41.274,123.748L42.42,123.688L43.567,123.781L44.713,123.483L45.86,124.041L47.006,124L48.153,123.856L49.299,126.124L50.446,130.163L51.592,132.668L52.739,133.904L53.885,133.602L55.032,134.183L56.178,133.359L57.325,133.886L58.471,134.596L59.618,136.129L60.764,136.395L61.911,136.692L63.057,136.572L64.204,136.353L65.35,136.67L66.497,137.449L67.643,138.173L68.79,138.323L69.936,138.317L71.083,138.253L72.229,138.978L73.376,139.802L74.522,140.158L75.669,139.849L76.815,140.15L77.962,139.994L79.108,140.538L80.255,140.146L81.401,139.994L82.548,139.737L83.694,139.669L84.841,139.742L85.987,140.069L87.134,140.955L88.28,141.22L89.427,141.39L90.573,140.619L91.72,140.534L92.866,140.753L94.013,140.467L95.159,139.923L96.306,139.89L97.452,139.328L98.599,139.119L99.745,139.015L100.892,138.883L102.038,139.363L103.185,139.617L104.331,139.732L105.478,139.878L106.624,140.469L107.771,140.099L108.917,139.935L110.064,140.505L111.21,141.756L112.357,142.244L113.503,141.637L114.65,141.456L115.796,140.631L116.943,140.023L118.089,140.6L119.236,141.783L120.382,142.729L121.529,143.478L122.675,143.279L123.822,142.612L124.968,143.126L126.115,142.757L127.261,143.223L128.408,143.835L129.554,144.004L130.701,143.739L131.847,143.698L132.994,143.475L134.14,144.203L135.287,144.859L136.433,144.748L137.58,143.87L138.726,143.511L139.873,143.085L141.019,142.942L142.166,142.382L143.312,142.782L144.459,142.533L145.605,142.763L146.752,142.803L147.898,142.064L149.045,141.862L150.191,141.13L151.338,140.863L152.484,141.124L153.631,141.021L154.777,141.584L155.924,141.513L157.07,141.673L158.217,140.547L159.363,139.925L160.51,140.077L161.656,140.251L162.803,140.586L163.949,140.909L165.096,140.924L166.242,141.063L167.389,141.187L168.535,140.272L169.682,139.765L170.828,139.266L171.975,138.793L173.121,138.534L174.268,138.914L175.414,138.896L176.561,138.232L177.707,138.519L178.854,138.841L180,139.38L182.293,139.881L183.439,140.34L184.586,140.501L185.732,140.599L186.879,140.265L188.025,139.429L189.172,139.189L190.318,138.554L191.465,138.271L192.611,136.769L193.758,137.064L194.904,137.482L196.051,137.69L197.197,138.573L198.344,138.348L199.49,137.279L200.637,136.131L201.783,135.56L202.93,135.082L204.076,134.791L205.223,134.626L206.369,134.551L207.516,134.468L208.662,134.381L209.809,133.922L210.955,134.251L212.102,134.471L213.248,134.711L214.395,134.703L215.541,135.512L216.688,135.328L217.834,134.87L218.981,134.367L220.127,133.154L221.274,132.652L222.42,132L223.567,131.828L224.713,132.409L225.86,132.174L227.006,133.151L228.153,134.566L229.299,134.336L230.446,134.279L231.592,135.111L232.739,133.671L233.885,132.345L235.032,131.621L236.178,130.478L237.325,130.038L238.471,130.196L239.618,131.301L240.764,132.48L241.911,133.088L243.057,133.477L244.204,133.308L246.497,133.173L247.643,132.822L248.79,132.087L249.936,131.954L251.083,132.509L252.229,132.814L253.376,132.514L254.522,132.532L255.669,133.398L256.815,133.39L257.962,133.971L259.108,134.054L260.255,134.328L261.401,134.081L262.548,133.803L263.694,133.692L264.841,133.286L265.987,132.927L267.134,132.771L268.28,132.735L269.427,132.529L270.573,132.777L271.72,133.617L272.866,133.413L274.013,134.497L275.159,135.77L276.306,135.794L277.452,135.818L278.599,135.603L279.745,135.38L280.892,135.366L282.038,135.645L283.185,135.105L284.331,134.81L286.624,134.159L287.771,133.175L288.917,133.039L290.064,133.311L291.21,133.621L292.357,133.478L294.65,132.584L295.796,132.189L296.943,131.765L298.089,131.974L299.236,132.317L300.382,132.655L301.529,132.594L302.675,132.718L303.822,132.82L304.968,132.349L306.115,132.002L307.261,130.762L308.408,130.558L309.554,130.61L310.701,129.933L311.847,131.175L312.994,131.234L314.14,132.166L315.287,132.647L316.433,133.229L317.58,133.444L318.726,133.664L319.873,134.062L321.019,134.155L322.166,134.984L323.312,135.199L324.459,135.159L325.605,135.99L326.752,135.994L327.898,136.485L329.045,137.091L330.191,137.257L331.338,136.24L332.484,135.486L333.631,133.824L334.777,133.305L335.924,134.866L337.07,136.241L338.217,138.442L339.363,138.039L340.51,138.019L341.656,138.445L342.803,137.583L343.949,137.352L345.096,137.142L346.242,137.365L347.389,138.057L348.535,138.67L349.682,139.017L350.828,139.448L351.975,140.092L353.121,139.7L354.268,138.856L355.414,139.622L356.561,141.43L357.707,140.744L358.854,140.133L360,141.511L361.146,143.67L362.293,144.349L363.439,144.18L364.586,142.055L365.732,140.674L366.879,139.526L368.025,142.269L369.172,144.857L370.318,143.407L371.465,141.232L372.611,142.291L373.758,143.218L374.904,144.857L376.051,144.65L377.197,144.46L378.344,143.593L379.49,143.984L380.637,144.952L381.783,143.739L382.93,142.972L384.076,145.891L385.223,146.39L386.369,146.173L387.516,147.093L388.662,146.487L389.809,145.383L390.955,145.356L392.102,145.871L393.248,146.825L394.395,145.739L395.541,143.802L396.688,144.286L397.834,146.311L398.981,145.747L400.127,144.302L401.274,145.623L402.42,146.302L403.567,146.678L404.713,147.334L405.86,146.897L407.006,147.191L408.153,147.364L409.299,147.883L410.446,147.467L411.592,147.084L412.739,146.421L413.885,146.264L415.032,146.914L416.178,146.555L417.325,146.929L418.471,147.837L419.618,148.445L420.764,149.317L421.911,149.769L423.057,148.934L424.204,148.371L425.35,148.217L426.497,148.161L427.643,148.374L428.79,149.8L429.936,149.91L431.083,146.023L432.229,145.388L433.376,148.46L434.522,150.079L435.669,149.245L436.815,147.787L437.962,147.167L439.108,148.255L440.255,149.604L441.401,151.32L442.548,151.164L443.694,147.79L444.841,147.374L445.987,147.596L447.134,148.335L448.28,149.655L449.427,151.263L450.573,151.223L451.72,151.404L452.866,150.519L454.013,150.567L455.159,149.529L456.306,149.535L457.452,150.38L458.599,151.315L459.745,152.122L460.892,152.16L462.038,152.065L463.185,151.024L464.331,150.363L465.478,151.207L466.624,151.912L467.771,152.651L468.917,152.291L470.064,152.308L471.21,152.264L472.357,151.968L473.503,151.754L474.65,153.278L475.796,153.846L476.943,152.143L478.089,150.012L479.236,149.275L480.382,149.359L481.529,149.866L482.675,150.679L483.822,151.897L484.968,152.912L486.115,153.086L487.261,152.607L488.408,152.226L489.554,151.467L490.701,151.726L491.847,152.514L492.994,152.64L494.14,153.224L495.287,152.608L496.433,152.974L497.58,152.408L498.726,152.604L499.873,152.759L501.019,154.164L502.166,154.519L503.312,154.554L504.459,155.38L505.605,155.75L506.752,156.017L507.898,155.624L509.045,155.507L510.191,155.446L511.338,154.901L512.484,155.148L513.631,156.109L514.777,156.575L515.924,156.431L517.07,157.226L518.217,157.656L519.363,156.904L520.51,155.712L521.656,155.614L522.803,156.836L523.949,157.47L525.096,157.799L526.242,157.727L527.389,157.888L528.535,157.559L529.682,156.78L530.828,156.67L531.975,156.573L533.121,156.496L534.268,156.315L535.414,156.702L536.561,156.854L537.707,156.808L538.854,157.022L540,156.85L541.146,156.955L542.293,157.264L543.439,157.531L544.586,157.724L545.732,157.844L551.465,157.767L552.611,157.796L554.904,157.73L556.051,157.736L557.197,157.963L558.344,158.003L559.49,157.961L560.637,158.294L561.783,158.419L562.93,158.416L564.076,158.389L565.223,158.364L566.369,158.364L567.516,158.364" stroke="#fdbf6f" stroke-width="2" id="path_39" />
                                </g>
                            </g>
                            <path class="foreground" aria-hidden="true" d="" display="none" id="path_38" />
                        </g>
                        <g transform="translate(0,0)" id="g_56">
                            <path class="background" aria-hidden="true" d="M0,0h600v200h-600Z" id="path_37" />
                            <g id="g_57">
                                <g class="mark-line role-mark layer_0_marks" role="graphics-object" aria-roledescription="line mark container" id="g_58">
                                    <path aria-label="Date: May; Price: 2508.16046655; model: RTX 3090" role="graphics-symbol" aria-roledescription="line mark" d="M0,88.526L1.146,81.038L2.293,79.704L3.439,79.303L4.586,80.424L5.732,80.597L6.879,80.53L8.025,81.167L9.172,81.62L10.318,81.66L11.465,81.739L12.611,81.835L13.758,81.141L14.904,79.31L16.051,77.617L17.197,75.642L18.344,74.715L19.49,74.627L20.637,74.403L21.783,74.225L22.93,74.017L24.076,73.757L25.223,74.261L26.369,75.054L27.516,77.319L28.662,77.861L29.809,77.99L30.955,79.222L32.102,78.775L33.248,79.579L34.395,78.887L35.541,77.417L36.688,77.046L37.834,77.169L38.981,77.459L40.127,77.712L41.274,79.378L42.42,80.739L43.567,81.261L44.713,81.468L45.86,81.945L47.006,82.37L48.153,82.808L49.299,83.868L50.446,86.15L51.592,87.615L52.739,87.329L53.885,88.414L55.032,90.659L56.178,92.572L57.325,92.252L58.471,92.509L59.618,94.133L60.764,94.528L61.911,93.012L63.057,93.134L64.204,92.758L65.35,93.402L66.497,93.792L67.643,92.257L68.79,92.833L69.936,92.958L71.083,93.653L72.229,94.205L73.376,97.223L74.522,98.802L75.669,99.107L76.815,99.451L77.962,100.092L79.108,99.981L80.255,98.607L81.401,97.389L82.548,96.533L83.694,96.585L84.841,96.611L85.987,96.002L87.134,95.31L88.28,95.988L89.427,96.498L90.573,98.07L91.72,99.941L92.866,99.9L94.013,100.97L95.159,102.651L96.306,103.212L97.452,104.17L98.599,104.007L99.745,103.066L100.892,101.128L102.038,100.528L103.185,101.187L104.331,101.367L105.478,101.221L106.624,102.192L107.771,103.216L108.917,103.285L110.064,103.023L111.21,103.548L112.357,103.472L113.503,102.717L114.65,102.85L115.796,102.689L116.943,102.686L118.089,102.01L119.236,101.757L120.382,101.879L121.529,102.106L122.675,101.296L123.822,101.626L124.968,101.896L126.115,101.056L127.261,100.274L128.408,100.437L129.554,99.512L130.701,99.499L131.847,100.413L132.994,100.714L134.14,101.072L135.287,100.687L136.433,100.294L137.58,100.547L138.726,100.656L139.873,100.447L141.019,100.309L142.166,99.458L143.312,98.538L144.459,97.826L145.605,96.964L146.752,95.248L147.898,94.624L149.045,94.654L150.191,93.798L151.338,92.026L152.484,92.105L153.631,92.211L154.777,92.325L155.924,92.108L157.07,91.814L158.217,92.264L159.363,92.552L160.51,93.103L161.656,93.002L162.803,93.332L163.949,95.315L166.242,95.145L167.389,94.166L168.535,93.307L169.682,92.789L170.828,92.287L171.975,92.32L173.121,92.665L174.268,91.89L175.414,90.754L176.561,90.713L177.707,90.582L178.854,90.206L180,89.332L181.146,89.544L182.293,88.846L183.439,90.889L184.586,90.719L185.732,89.643L186.879,89.112L188.025,89.923L189.172,89.969L190.318,90.036L191.465,88.947L192.611,88.32L193.758,87.537L194.904,85.893L196.051,85.934L198.344,84.828L199.49,83.049L200.637,82.875L201.783,82.734L202.93,83.354L204.076,82.841L206.369,83.087L207.516,82.797L208.662,83.371L209.809,84.881L210.955,85.352L212.102,85.404L213.248,85.608L214.395,85.191L215.541,84.798L216.688,83.793L217.834,82.416L218.981,80.85L220.127,79.435L221.274,79.065L222.42,79.676L223.567,79.799L224.713,78.782L225.86,78.713L227.006,80.214L228.153,81.505L229.299,81.304L230.446,80.903L231.592,81.028L232.739,81.172L233.885,80.331L235.032,80.945L236.178,81.007L237.325,80.711L238.471,80.52L239.618,80.327L240.764,81.287L241.911,82.211L243.057,81.37L244.204,79.488L246.497,79.31L247.643,79.276L248.79,78.971L249.936,79.226L251.083,78.473L252.229,79.83L253.376,80.019L254.522,80.344L255.669,79.607L256.815,78.746L257.962,79.664L259.108,80.501L260.255,82.661L261.401,83.641L262.548,82.998L263.694,81.519L264.841,79.719L265.987,77.421L267.134,77.503L268.28,78.225L269.427,78.31L270.573,78.908L271.72,80.427L272.866,80.85L274.013,82.992L276.306,83.788L277.452,84.062L278.599,84.433L279.745,83.632L280.892,82.867L282.038,82.077L283.185,81.525L284.331,81.555L285.478,81.053L286.624,79.443L287.771,76.969L288.917,77.066L290.064,80.055L291.21,81.831L292.357,82.302L293.503,82.103L294.65,80.996L295.796,79.296L296.943,79.002L298.089,81.3L299.236,84.582L300.382,87.384L301.529,87.32L302.675,86.011L303.822,84.044L304.968,83.629L306.115,83.532L307.261,83.014L308.408,82.621L309.554,82.816L310.701,82.541L311.847,82.255L312.994,82.122L314.14,83.043L315.287,82.795L316.433,82.857L317.58,82.621L318.726,83.952L319.873,84.578L321.019,85.053L322.166,86.149L323.312,87.355L324.459,87.959L325.605,87.243L326.752,86.757L327.898,86.633L329.045,86.711L330.191,87.622L331.338,86.599L332.484,86.37L333.631,86.398L334.777,88.659L335.924,89.503L337.07,89.521L338.217,89.392L339.363,90.204L340.51,90.92L341.656,91.158L342.803,91.969L343.949,92.335L345.096,92.842L346.242,93.362L347.389,93.337L348.535,93.298L349.682,93.406L350.828,93.338L351.975,94.073L353.121,94.032L354.268,93.541L355.414,93.706L356.561,93.869L357.707,93.905L358.854,93.261L360,93.305L361.146,94.037L362.293,94.873L363.439,95.73L364.586,96.502L365.732,97.437L366.879,99.198L368.025,100.083L369.172,100.412L370.318,100.947L371.465,102.185L372.611,104.294L373.758,104.487L374.904,104.743L376.051,104.951L377.197,104.903L378.344,105.374L379.49,105.477L380.637,104.941L381.783,104.913L382.93,104.513L384.076,104.657L385.223,104.391L386.369,104.697L387.516,105.089L388.662,105.571L389.809,105.164L390.955,104.258L392.102,103.83L393.248,104.207L394.395,103.222L395.541,103.81L396.688,104.153L397.834,104.526L398.981,104.503L400.127,105.074L401.274,105.715L402.42,104.726L403.567,105.237L404.713,105.255L405.86,105.334L407.006,104.882L408.153,104.917L409.299,104.09L410.446,104.157L411.592,104.534L412.739,104.988L413.885,105.279L415.032,105.586L416.178,105.506L417.325,105.554L418.471,104.722L419.618,104.853L420.764,104.846L421.911,105.25L423.057,105.771L424.204,106.084L425.35,106.006L426.497,106.274L427.643,106.671L428.79,105.979L429.936,105.475L431.083,104.273L432.229,103.531L433.376,103.959L434.522,104.249L435.669,105.742L436.815,106.432L439.108,106.586L440.255,106.834L441.401,107.997L442.548,109.117L443.694,108.365L444.841,108.651L445.987,108.714L447.134,108.912L448.28,108.711L449.427,109.333L450.573,109.851L451.72,111.841L452.866,111.913L454.013,111.616L455.159,111.377L456.306,110.331L457.452,110.496L458.599,110.947L459.745,111.138L460.892,112.348L462.038,112.324L463.185,112.997L464.331,112.881L465.478,113.113L466.624,113.242L467.771,113.696L468.917,113.892L470.064,114.493L471.21,114.425L472.357,114.624L474.65,114.376L475.796,114.905L476.943,115.936L478.089,116.932L479.236,117.012L480.382,116.875L481.529,117.831L482.675,117.434L483.822,117.233L484.968,116.416L486.115,116.007L487.261,114.876L488.408,115.189L489.554,116.154L490.701,116.587L491.847,117.734L492.994,117.452L494.14,116.988L495.287,116.428L496.433,116.456L497.58,116.138L498.726,115.4L499.873,117.306L501.019,120.031L502.166,120.851L503.312,121.953L504.459,121.287L505.605,120.026L506.752,119.943L507.898,120.301L509.045,120.778L510.191,120.884L511.338,120.955L512.484,120.364L513.631,122.679L514.777,127.964L515.924,130.207L517.07,130.011L518.217,129.978L519.363,130.961L520.51,131.807L521.656,130.855L522.803,129.612L523.949,130.131L525.096,130.617L526.242,130.439L527.389,130.676L528.535,130.388L529.682,129.992L531.975,129.499L533.121,130.344L535.414,130.352L536.561,130.843L537.707,130.922L538.854,131.046L540,131.11L541.146,131.257L542.293,131.345L543.439,131.322L544.586,131.636L562.93,132.103" stroke="#6a3d9a" stroke-width="2" id="path_36" />
                                </g>
                            </g>
                            <path class="foreground" aria-hidden="true" d="" display="none" id="path_35" />
                        </g>
                        <g transform="translate(0,0)" id="g_53">
                            <path class="background" aria-hidden="true" d="M0,0h600v200h-600Z" id="path_34" />
                            <g id="g_54">
                                <g class="mark-line role-mark layer_0_marks" role="graphics-object" aria-roledescription="line mark container" id="g_55">
                                    <path aria-label="Date: May; Price: 1099; model: RTX 3060 Ti" role="graphics-symbol" aria-roledescription="line mark" d="M2.293,151.156L5.732,155.156L11.465,155.304L13.758,155.933L14.904,159.005L16.051,161.089L17.197,163.553L25.223,156.392L26.369,151.117L27.516,148.474L28.662,146.687L29.809,145.316L30.955,145.556L34.395,146.076L42.42,146.958L47.006,147.77L48.153,147.968L50.446,148.426L55.032,148.583L56.178,148.712L57.325,148.988L58.471,149.408L59.618,149.736L60.764,150.331L61.911,150.82L63.057,151.446L64.204,152.4L65.35,152.893L66.497,152.738L69.936,153.486L71.083,156.159L72.229,159.355L73.376,162.543L74.522,164.082L75.669,164.747L76.815,165.147L77.962,165.408L79.108,165.51L80.255,165.555L81.401,165.69L82.548,165.775L83.694,165.882L84.841,165.926L85.987,166.017L87.134,166.215L88.28,166.188L89.427,166.24L90.573,166.231L91.72,166.293L92.866,166.383L94.013,166.377L95.159,166.46L96.306,167.048L97.452,167.11L98.599,167.052L99.745,167.245L100.892,167.314L102.038,167.343L103.185,167.442L104.331,167.51L105.478,168.081L106.624,168.241L107.771,168.381L108.917,168.461L110.064,168.59L111.21,168.804L112.357,168.848L113.503,169.062L114.65,169.174L115.796,169.399L116.943,169.263L118.089,169.773L119.236,170.009L120.382,170.225L121.529,170.382L122.675,170.549L123.822,170.321L124.968,170.391L126.115,169.72L127.261,169.354L128.408,169.709L129.554,169.826L130.701,169.711L131.847,169.46L132.994,169.142L134.14,168.912L135.287,168.641L136.433,168.485L137.58,168.352L138.726,167.867L139.873,168.007L141.019,168.104L142.166,168.196L143.312,168.441L144.459,168.679L145.605,168.464L146.752,168.451L147.898,168.184L150.191,168.02L151.338,167.929L152.484,168.131L153.631,168.481L154.777,168.117L155.924,167.974L158.217,168.02L159.363,167.832L160.51,167.779L161.656,167.568L162.803,166.973L163.949,167.018L165.096,167.064L166.242,166.634L167.389,166.743L168.535,166.75L169.682,166.785L170.828,166.955L171.975,167.17L173.121,167.075L174.268,167.112L175.414,166.454L176.561,165.946L177.707,166.229L178.854,166.841L180,167.314L181.146,167.393L182.293,167.477L183.439,167.069L184.586,166.733L185.732,166.13L186.879,165.749L188.025,165.842L189.172,165.566L190.318,165.304L191.465,165.639L192.611,165.22L193.758,165.511L194.904,164.946L196.051,164.363L197.197,164.251L198.344,164.031L199.49,164.241L200.637,164.498L201.783,164.338L202.93,164.363L204.076,164.586L205.223,164.818L206.369,164.718L207.516,163.864L208.662,163.035L209.809,163.025L210.955,163.484L212.102,163.537L213.248,163.915L214.395,164.071L215.541,163.706L216.688,163.364L217.834,162.209L218.981,161.592L220.127,161.806L221.274,161.778L222.42,161.71L223.567,161.127L224.713,160.305L225.86,159.621L227.006,161.857L228.153,165.119L229.299,165.383L230.446,164.983L231.592,163.348L232.739,162.701L233.885,161.814L235.032,161.79L236.178,162.393L237.325,162.521L238.471,161.888L239.618,161.798L240.764,160.976L241.911,161.424L243.057,161.867L244.204,161.697L245.35,161.212L246.497,161.455L247.643,161.973L248.79,163.112L249.936,162.846L251.083,162.025L252.229,161.752L253.376,161.422L254.522,161.51L255.669,161.236L256.815,161.117L257.962,161.48L259.108,161.527L260.255,161.896L261.401,161.907L262.548,161.722L263.694,162.321L264.841,162.941L265.987,161.276L267.134,160.502L268.28,160.702L269.427,161.071L270.573,162.324L271.72,163.31L272.866,162.909L274.013,162.26L275.159,161.973L276.306,161.573L277.452,161.443L278.599,161.081L279.745,160.379L280.892,160.977L282.038,161.341L283.185,161.445L284.331,161.613L285.478,161.699L286.624,161.539L287.771,160.745L288.917,160.621L290.064,161.054L291.21,161.79L292.357,162.104L293.503,162.67L294.65,162.719L295.796,162.526L296.943,161.9L298.089,161.776L299.236,161.941L300.382,162.212L301.529,161.79L302.675,161.971L303.822,162.854L304.968,162.845L306.115,163.123L307.261,163.03L308.408,162.729L309.554,162.947L310.701,163.266L311.847,163.691L312.994,164.032L314.14,163.888L315.287,163.278L316.433,163.246L317.58,163.335L318.726,163.458L319.873,164.264L321.019,164.556L322.166,164.848L323.312,164.419L324.459,164.276L325.605,164.134L326.752,163.928L327.898,163.784L329.045,163.958L330.191,164.749L331.338,165.667L332.484,166.364L333.631,166.596L334.777,166.476L335.924,166.617L337.07,166.786L338.217,167.045L339.363,166.719L340.51,166.269L341.656,166.086L342.803,165.638L343.949,165.47L345.096,165.632L346.242,166.135L347.389,166.383L348.535,166.654L349.682,166.748L350.828,166.269L351.975,165.676L353.121,165.08L354.268,165.134L355.414,165.768L356.561,166.273L357.707,166.52L358.854,166.02L360,165.689L361.146,166.191L362.293,166.619L363.439,167.253L364.586,167.57L365.732,167.706L366.879,167.55L368.025,167.695L369.172,168.175L370.318,169.201L371.465,169.331L372.611,169.345L373.758,168.655L374.904,168.654L376.051,169.131L377.197,169.482L378.344,170.285L379.49,170.222L380.637,170.071L381.783,169.911L382.93,169.674L384.076,169.45L385.223,169.674L386.369,170.456L387.516,170.428L388.662,170.286L389.809,169.768L390.955,169.383L392.102,169.26L393.248,169.239L394.395,169.489L395.541,169.695L396.688,169.662L397.834,169.623L398.981,169.548L400.127,169.716L401.274,169.722L402.42,170.078L403.567,170.194L404.713,170.354L405.86,170.233L407.006,170.473L408.153,170.611L409.299,170.42L410.446,170.496L411.592,170.374L412.739,170.306L413.885,170.223L415.032,170.269L416.178,170.322L417.325,170.284L418.471,170.415L419.618,170.206L420.764,170.219L421.911,170.355L423.057,170.224L424.204,170.12L425.35,170.248L426.497,170.457L427.643,170.284L428.79,170.373L429.936,170.206L431.083,170.056L432.229,169.437L433.376,169.261L434.522,169.558L435.669,169.884L436.815,169.828L437.962,170.065L439.108,170.164L440.255,170.333L441.401,170.448L442.548,170.237L443.694,170.329L444.841,170.28L445.987,170.285L447.134,170.285L448.28,170.575L449.427,170.803L450.573,171.181L451.72,171.417L452.866,171.372L454.013,171.303L455.159,171.319L456.306,171.322L457.452,171.391L458.599,171.569L459.745,171.921L460.892,172.322L462.038,172.57L463.185,172.68L464.331,172.843L465.478,173.048L466.624,173.092L467.771,172.908L468.917,172.742L470.064,172.652L471.21,172.735L472.357,172.841L473.503,172.882L474.65,172.962L475.796,173.372L476.943,173.688L478.089,173.737L479.236,173.78L480.382,173.744L481.529,173.414L482.675,173.232L483.822,172.808L484.968,172.787L486.115,172.813L487.261,172.934L488.408,173.049L489.554,172.921L490.701,172.93L491.847,173.082L492.994,173.015L494.14,172.983L495.287,173L496.433,173.034L497.58,173.248L498.726,173.418L499.873,173.51L501.019,173.616L502.166,173.648L503.312,173.632L504.459,173.567L505.605,173.535L506.752,173.335L507.898,173.442L509.045,173.687L510.191,173.691L511.338,173.764L512.484,173.707L513.631,174.235L514.777,174.395L515.924,174.459L517.07,174.596L518.217,174.517L519.363,174.584L520.51,174.057L521.656,173.426L522.803,173.333L523.949,173.534L525.096,173.63L526.242,173.594L527.389,173.72L528.535,173.968L529.682,174.129L530.828,174.084L531.975,174.132L533.121,174.246L535.414,174.328L536.561,174.374L537.707,174.401L538.854,174.382L540,174.45L541.146,174.514L542.293,174.525L543.439,174.607L544.586,174.732L552.611,174.952L554.904,174.971L556.051,174.97L557.197,175.02L558.344,174.98L559.49,175.012L560.637,174.964L561.783,174.915L564.076,174.958L565.223,174.983" stroke="#1f78b4" stroke-width="2" id="path_33" />
                                </g>
                            </g>
                            <path class="foreground" aria-hidden="true" d="" display="none" id="path_32" />
                        </g>
                    </g>
                    <g class="mark-rule role-mark layer_1_layer_0_marks" role="graphics-object" aria-roledescription="rule mark container" id="g_51">
                        <line aria-label="date: Jun 01, 2021" role="graphics-symbol" aria-roledescription="rule mark" transform="translate(31.337579617834397,0)" x2="0" y2="200" stroke="black" stroke-dasharray="3,3" id="line_1" />
                        <line aria-label="date: Sep 15, 2022" role="graphics-symbol" aria-roledescription="rule mark" transform="translate(571.3375796178344,0)" x2="0" y2="200" stroke="black" stroke-dasharray="3,3" id="line" />
                    </g>
                    <g class="mark-text role-mark layer_1_layer_1_marks" role="graphics-object" aria-roledescription="text mark container" id="g_50"><text aria-label="date: Jun 01, 2021; text: LHR models are introduced" role="graphics-symbol" aria-roledescription="text mark" text-anchor="start" transform="translate(36.33757961783439,18)" font-family="sans-serif" font-size="11px" fill="black" id="text_77">LHR models are introduced</text><text aria-label="date: Sep 15, 2022; text: Proof-of-stake merge" role="graphics-symbol" aria-roledescription="text mark" text-anchor="start" transform="translate(576.3375796178344,18)" font-family="sans-serif" font-size="11px" fill="black" id="text_76">Proof-of-stake merge</text></g>
                    <g class="mark-line role-mark layer_2_marks" role="graphics-object" aria-roledescription="line mark container" id="g_49">
                        <path aria-label="Date: May 08, 2021; price: 2864.93439881" role="graphics-symbol" aria-roledescription="line mark" d="M3.822,72.67L8.408,39.543L14.14,68.868L23.312,103.516L32.484,104.164L41.656,104.7L51.975,116.277L55.414,136.575L62.293,126.133L71.465,117.674L89.809,124.772L98.981,110.909L108.153,90.698L117.325,76.93L126.497,76.838L135.669,78.345L144.841,71.042L154.013,64.034L163.185,80.583L172.357,73.068L181.529,62.667L190.701,52.547L199.873,38.392L219.363,16.71L228.535,30.7L237.707,39.084L246.879,34.744L257.197,47.581L266.369,43.794L275.541,54.373L284.713,74.868L293.885,70.435L303.057,115.392L304.204,104.17L313.376,90.019L322.548,73.673L331.72,86.791L350.064,91.568L359.236,97.691L368.408,83.38L377.58,63.687L386.752,70.796L391.338,68.725L397.07,75.018L406.242,79.133L415.414,80.829L424.586,106.27L433.758,111.989L442.93,119.3L452.102,124.244L461.274,129.832L469.299,162.756L480.764,149.958L489.936,150.983L499.108,150.657L508.28,131.488L517.452,125.14L526.624,126.219L535.796,116.084L544.968,127.334L554.14,132.399L563.312,127.561L572.484,134.459L581.656,139.137L590.828,140.529L600,139.587" stroke="black" stroke-width="2" stroke-dasharray="1,3" id="path_31" />
                    </g>
                    <g class="mark-text role-mark layer_3_marks" role="graphics-object" aria-roledescription="text mark container" id="g_48"><text text-anchor="middle" transform="translate(465,23)" font-family="sans-serif" font-size="11px" fill="black" id="text_75">ETH</text><text text-anchor="middle" transform="translate(465,23)" font-family="sans-serif" font-size="11px" fill="black" id="text_74">ETH</text><text text-anchor="middle" transform="translate(465,23)" font-family="sans-serif" font-size="11px" fill="black" id="text_73">ETH</text><text text-anchor="middle" transform="translate(465,23)" font-family="sans-serif" font-size="11px" fill="black" id="text_72">ETH</text><text text-anchor="middle" transform="translate(465,23)" font-family="sans-serif" font-size="11px" fill="black" id="text_71">ETH</text><text text-anchor="middle" transform="translate(465,23)" font-family="sans-serif" font-size="11px" fill="black" id="text_70">ETH</text><text text-anchor="middle" transform="translate(465,23)" font-family="sans-serif" font-size="11px" fill="black" id="text_69">ETH</text><text text-anchor="middle" transform="translate(465,23)" font-family="sans-serif" font-size="11px" fill="black" id="text_68">ETH</text><text text-anchor="middle" transform="translate(465,23)" font-family="sans-serif" font-size="11px" fill="black" id="text_67">ETH</text><text text-anchor="middle" transform="translate(465,23)" font-family="sans-serif" font-size="11px" fill="black" id="text_66">ETH</text><text text-anchor="middle" transform="translate(465,23)" font-family="sans-serif" font-size="11px" fill="black" id="text_65">ETH</text><text text-anchor="middle" transform="translate(465,23)" font-family="sans-serif" font-size="11px" fill="black" id="text_64">ETH</text><text text-anchor="middle" transform="translate(465,23)" font-family="sans-serif" font-size="11px" fill="black" id="text_63">ETH</text><text text-anchor="middle" transform="translate(465,23)" font-family="sans-serif" font-size="11px" fill="black" id="text_62">ETH</text><text text-anchor="middle" transform="translate(465,23)" font-family="sans-serif" font-size="11px" fill="black" id="text_61">ETH</text><text text-anchor="middle" transform="translate(465,23)" font-family="sans-serif" font-size="11px" fill="black" id="text_60">ETH</text><text text-anchor="middle" transform="translate(465,23)" font-family="sans-serif" font-size="11px" fill="black" id="text_59">ETH</text><text text-anchor="middle" transform="translate(465,23)" font-family="sans-serif" font-size="11px" fill="black" id="text_58">ETH</text><text text-anchor="middle" transform="translate(465,23)" font-family="sans-serif" font-size="11px" fill="black" id="text_57">ETH</text><text text-anchor="middle" transform="translate(465,23)" font-family="sans-serif" font-size="11px" fill="black" id="text_56">ETH</text><text text-anchor="middle" transform="translate(465,23)" font-family="sans-serif" font-size="11px" fill="black" id="text_55">ETH</text><text text-anchor="middle" transform="translate(465,23)" font-family="sans-serif" font-size="11px" fill="black" id="text_54">ETH</text><text text-anchor="middle" transform="translate(465,23)" font-family="sans-serif" font-size="11px" fill="black" id="text_53">ETH</text><text text-anchor="middle" transform="translate(465,23)" font-family="sans-serif" font-size="11px" fill="black" id="text_52">ETH</text><text text-anchor="middle" transform="translate(465,23)" font-family="sans-serif" font-size="11px" fill="black" id="text_51">ETH</text><text text-anchor="middle" transform="translate(465,23)" font-family="sans-serif" font-size="11px" fill="black" id="text_50">ETH</text><text text-anchor="middle" transform="translate(465,23)" font-family="sans-serif" font-size="11px" fill="black" id="text_49">ETH</text><text text-anchor="middle" transform="translate(465,23)" font-family="sans-serif" font-size="11px" fill="black" id="text_48">ETH</text><text text-anchor="middle" transform="translate(465,23)" font-family="sans-serif" font-size="11px" fill="black" id="text_47">ETH</text><text text-anchor="middle" transform="translate(465,23)" font-family="sans-serif" font-size="11px" fill="black" id="text_46">ETH</text><text text-anchor="middle" transform="translate(465,23)" font-family="sans-serif" font-size="11px" fill="black" id="text_45">ETH</text><text text-anchor="middle" transform="translate(465,23)" font-family="sans-serif" font-size="11px" fill="black" id="text_44">ETH</text><text text-anchor="middle" transform="translate(465,23)" font-family="sans-serif" font-size="11px" fill="black" id="text_43">ETH</text><text text-anchor="middle" transform="translate(465,23)" font-family="sans-serif" font-size="11px" fill="black" id="text_42">ETH</text><text text-anchor="middle" transform="translate(465,23)" font-family="sans-serif" font-size="11px" fill="black" id="text_41">ETH</text><text text-anchor="middle" transform="translate(465,23)" font-family="sans-serif" font-size="11px" fill="black" id="text_40">ETH</text><text text-anchor="middle" transform="translate(465,23)" font-family="sans-serif" font-size="11px" fill="black" id="text_39">ETH</text><text text-anchor="middle" transform="translate(465,23)" font-family="sans-serif" font-size="11px" fill="black" id="text_38">ETH</text><text text-anchor="middle" transform="translate(465,23)" font-family="sans-serif" font-size="11px" fill="black" id="text_37">ETH</text><text text-anchor="middle" transform="translate(465,23)" font-family="sans-serif" font-size="11px" fill="black" id="text_36">ETH</text><text text-anchor="middle" transform="translate(465,23)" font-family="sans-serif" font-size="11px" fill="black" id="text_35">ETH</text><text text-anchor="middle" transform="translate(465,23)" font-family="sans-serif" font-size="11px" fill="black" id="text_34">ETH</text><text text-anchor="middle" transform="translate(465,23)" font-family="sans-serif" font-size="11px" fill="black" id="text_33">ETH</text><text text-anchor="middle" transform="translate(465,23)" font-family="sans-serif" font-size="11px" fill="black" id="text_32">ETH</text><text text-anchor="middle" transform="translate(465,23)" font-family="sans-serif" font-size="11px" fill="black" id="text_31">ETH</text><text text-anchor="middle" transform="translate(465,23)" font-family="sans-serif" font-size="11px" fill="black" id="text_30">ETH</text><text text-anchor="middle" transform="translate(465,23)" font-family="sans-serif" font-size="11px" fill="black" id="text_29">ETH</text><text text-anchor="middle" transform="translate(465,23)" font-family="sans-serif" font-size="11px" fill="black" id="text_28">ETH</text><text text-anchor="middle" transform="translate(465,23)" font-family="sans-serif" font-size="11px" fill="black" id="text_27">ETH</text><text text-anchor="middle" transform="translate(465,23)" font-family="sans-serif" font-size="11px" fill="black" id="text_26">ETH</text><text text-anchor="middle" transform="translate(465,23)" font-family="sans-serif" font-size="11px" fill="black" id="text_25">ETH</text><text text-anchor="middle" transform="translate(465,23)" font-family="sans-serif" font-size="11px" fill="black" id="text_24">ETH</text><text text-anchor="middle" transform="translate(465,23)" font-family="sans-serif" font-size="11px" fill="black" id="text_23">ETH</text><text text-anchor="middle" transform="translate(465,23)" font-family="sans-serif" font-size="11px" fill="black" id="text_22">ETH</text><text text-anchor="middle" transform="translate(465,23)" font-family="sans-serif" font-size="11px" fill="black" id="text_21">ETH</text><text text-anchor="middle" transform="translate(465,23)" font-family="sans-serif" font-size="11px" fill="black" id="text_20">ETH</text><text text-anchor="middle" transform="translate(465,23)" font-family="sans-serif" font-size="11px" fill="black" id="text_19">ETH</text><text text-anchor="middle" transform="translate(465,23)" font-family="sans-serif" font-size="11px" fill="black" id="text_18">ETH</text><text text-anchor="middle" transform="translate(465,23)" font-family="sans-serif" font-size="11px" fill="black" id="text_17">ETH</text><text text-anchor="middle" transform="translate(465,23)" font-family="sans-serif" font-size="11px" fill="black" id="text_16">ETH</text><text text-anchor="middle" transform="translate(465,23)" font-family="sans-serif" font-size="11px" fill="black" id="text_15">ETH</text><text text-anchor="middle" transform="translate(465,23)" font-family="sans-serif" font-size="11px" fill="black" id="text_14">ETH</text><text text-anchor="middle" transform="translate(465,23)" font-family="sans-serif" font-size="11px" fill="black" id="text_13">ETH</text><text text-anchor="middle" transform="translate(465,23)" font-family="sans-serif" font-size="11px" fill="black" id="text_12">ETH</text><text text-anchor="middle" transform="translate(465,23)" font-family="sans-serif" font-size="11px" fill="black" id="text_11">ETH</text><text text-anchor="middle" transform="translate(465,23)" font-family="sans-serif" font-size="11px" fill="black" id="text_10">ETH</text></g>
                    <g class="mark-group role-legend" role="graphics-symbol" aria-roledescription="legend" aria-label="Symbol legend titled 'model' for stroke color with 8 values: RTX 3050, RTX 3060, RTX 3060 Ti, RTX 3070, RTX 3070 Ti, ending with RTX 3090" id="g_8">
                        <g transform="translate(618,0)" id="g_9">
                            <path class="background" aria-hidden="true" d="M0,0h73v118h-73Z" pointer-events="none" id="path_30" />
                            <g id="g_10">
                                <g class="mark-group role-legend-entry" id="g_12">
                                    <g transform="translate(0,16)" id="g_13">
                                        <path class="background" aria-hidden="true" d="M0,0h0v0h0Z" pointer-events="none" id="path_29" />
                                        <g id="g_14">
                                            <g class="mark-group role-scope" role="graphics-object" aria-roledescription="group mark container" id="g_15">
                                                <g transform="translate(0,0)" id="g_44">
                                                    <path class="background" aria-hidden="true" d="M0,0h72.171875v11h-72.171875Z" pointer-events="none" opacity="1" id="path_28" />
                                                    <g id="g_45">
                                                        <g class="mark-symbol role-legend-symbol" pointer-events="none" id="g_47">
                                                            <path transform="translate(6,6)" d="M-5,0L5,0" stroke="#b15928" stroke-width="1.5" opacity="1" id="path_27" />
                                                        </g>
                                                        <g class="mark-text role-legend-label" pointer-events="none" id="g_46">
                                                            <text text-anchor="start" transform="translate(16,9)" font-family="sans-serif" font-size="10px" fill="#000" opacity="1" id="text_9">RTX 3050</text></g>
                                                    </g>
                                                    <path class="foreground" aria-hidden="true" d="" pointer-events="none" display="none" id="path_26" />
                                                </g>
                                                <g transform="translate(0,13)" id="g_40">
                                                    <path class="background" aria-hidden="true" d="M0,0h72.171875v11h-72.171875Z" pointer-events="none" opacity="1" id="path_25" />
                                                    <g id="g_41">
                                                        <g class="mark-symbol role-legend-symbol" pointer-events="none" id="g_43">
                                                            <path transform="translate(6,6)" d="M-5,0L5,0" stroke="#a6cee3" stroke-width="1.5" opacity="1" id="path_24" />
                                                        </g>
                                                        <g class="mark-text role-legend-label" pointer-events="none" id="g_42">
                                                            <text text-anchor="start" transform="translate(16,9)" font-family="sans-serif" font-size="10px" fill="#000" opacity="1" id="text_8">RTX 3060</text></g>
                                                    </g>
                                                    <path class="foreground" aria-hidden="true" d="" pointer-events="none" display="none" id="path_23" />
                                                </g>
                                                <g transform="translate(0,26)" id="g_36">
                                                    <path class="background" aria-hidden="true" d="M0,0h72.171875v11h-72.171875Z" pointer-events="none" opacity="1" id="path_22" />
                                                    <g id="g_37">
                                                        <g class="mark-symbol role-legend-symbol" pointer-events="none" id="g_39">
                                                            <path transform="translate(6,6)" d="M-5,0L5,0" stroke="#1f78b4" stroke-width="1.5" opacity="1" id="path_21" />
                                                        </g>
                                                        <g class="mark-text role-legend-label" pointer-events="none" id="g_38">
                                                            <text text-anchor="start" transform="translate(16,9)" font-family="sans-serif" font-size="10px" fill="#000" opacity="1" id="text_7">RTX 3060 Ti</text></g>
                                                    </g>
                                                    <path class="foreground" aria-hidden="true" d="" pointer-events="none" display="none" id="path_20" />
                                                </g>
                                                <g transform="translate(0,39)" id="g_32">
                                                    <path class="background" aria-hidden="true" d="M0,0h72.171875v11h-72.171875Z" pointer-events="none" opacity="1" id="path_19" />
                                                    <g id="g_33">
                                                        <g class="mark-symbol role-legend-symbol" pointer-events="none" id="g_35">
                                                            <path transform="translate(6,6)" d="M-5,0L5,0" stroke="#b2df8a" stroke-width="1.5" opacity="1" id="path_18" />
                                                        </g>
                                                        <g class="mark-text role-legend-label" pointer-events="none" id="g_34">
                                                            <text text-anchor="start" transform="translate(16,9)" font-family="sans-serif" font-size="10px" fill="#000" opacity="1" id="text_6">RTX 3070</text></g>
                                                    </g>
                                                    <path class="foreground" aria-hidden="true" d="" pointer-events="none" display="none" id="path_17" />
                                                </g>
                                                <g transform="translate(0,52)" id="g_28">
                                                    <path class="background" aria-hidden="true" d="M0,0h72.171875v11h-72.171875Z" pointer-events="none" opacity="1" id="path_16" />
                                                    <g id="g_29">
                                                        <g class="mark-symbol role-legend-symbol" pointer-events="none" id="g_31">
                                                            <path transform="translate(6,6)" d="M-5,0L5,0" stroke="#33a02c" stroke-width="1.5" opacity="1" id="path_15" />
                                                        </g>
                                                        <g class="mark-text role-legend-label" pointer-events="none" id="g_30">
                                                            <text text-anchor="start" transform="translate(16,9)" font-family="sans-serif" font-size="10px" fill="#000" opacity="1" id="text_5">RTX 3070 Ti</text></g>
                                                    </g>
                                                    <path class="foreground" aria-hidden="true" d="" pointer-events="none" display="none" id="path_14" />
                                                </g>
                                                <g transform="translate(0,65)" id="g_24">
                                                    <path class="background" aria-hidden="true" d="M0,0h72.171875v11h-72.171875Z" pointer-events="none" opacity="1" id="path_13" />
                                                    <g id="g_25">
                                                        <g class="mark-symbol role-legend-symbol" pointer-events="none" id="g_27">
                                                            <path transform="translate(6,6)" d="M-5,0L5,0" stroke="#fdbf6f" stroke-width="1.5" opacity="1" id="path_12" />
                                                        </g>
                                                        <g class="mark-text role-legend-label" pointer-events="none" id="g_26">
                                                            <text text-anchor="start" transform="translate(16,9)" font-family="sans-serif" font-size="10px" fill="#000" opacity="1" id="text_4">RTX 3080</text></g>
                                                    </g>
                                                    <path class="foreground" aria-hidden="true" d="" pointer-events="none" display="none" id="path_11" />
                                                </g>
                                                <g transform="translate(0,78)" id="g_20">
                                                    <path class="background" aria-hidden="true" d="M0,0h72.171875v11h-72.171875Z" pointer-events="none" opacity="1" id="path_10" />
                                                    <g id="g_21">
                                                        <g class="mark-symbol role-legend-symbol" pointer-events="none" id="g_23">
                                                            <path transform="translate(6,6)" d="M-5,0L5,0" stroke="#ff7f00" stroke-width="1.5" opacity="1" id="path_9" />
                                                        </g>
                                                        <g class="mark-text role-legend-label" pointer-events="none" id="g_22">
                                                            <text text-anchor="start" transform="translate(16,9)" font-family="sans-serif" font-size="10px" fill="#000" opacity="1" id="text_3">RTX 3080 Ti</text></g>
                                                    </g>
                                                    <path class="foreground" aria-hidden="true" d="" pointer-events="none" display="none" id="path_8" />
                                                </g>
                                                <g transform="translate(0,91)" id="g_16">
                                                    <path class="background" aria-hidden="true" d="M0,0h72.171875v11h-72.171875Z" pointer-events="none" opacity="1" id="path_7" />
                                                    <g id="g_17">
                                                        <g class="mark-symbol role-legend-symbol" pointer-events="none" id="g_19">
                                                            <path transform="translate(6,6)" d="M-5,0L5,0" stroke="#6a3d9a" stroke-width="1.5" opacity="1" id="path_6" />
                                                        </g>
                                                        <g class="mark-text role-legend-label" pointer-events="none" id="g_18">
                                                            <text text-anchor="start" transform="translate(16,9)" font-family="sans-serif" font-size="10px" fill="#000" opacity="1" id="text_2">RTX 3090</text></g>
                                                    </g>
                                                    <path class="foreground" aria-hidden="true" d="" pointer-events="none" display="none" id="path_5" />
                                                </g>
                                            </g>
                                        </g>
                                        <path class="foreground" aria-hidden="true" d="" pointer-events="none" display="none" id="path_4" />
                                    </g>
                                </g>
                                <g class="mark-text role-legend-title" pointer-events="none" id="g_11"><text text-anchor="start" transform="translate(0,9)" font-family="sans-serif" font-size="11px" font-weight="bold" fill="#000" opacity="1" id="text_1">model</text></g>
                            </g>
                            <path class="foreground" aria-hidden="true" d="" pointer-events="none" display="none" id="path_3" />
                        </g>
                    </g>
                    <g class="mark-group role-title" id="g_4">
                        <g transform="translate(300,-18)" id="g_5">
                            <path class="background" aria-hidden="true" d="M0,0h0v0h0Z" pointer-events="none" id="path_2" />
                            <g id="g_6">
                                <g class="mark-text role-title-text" role="graphics-symbol" aria-roledescription="title" aria-label="Title text 'Price Development'" pointer-events="none" id="g_7"><text text-anchor="middle" transform="translate(0,10)" font-family="sans-serif" font-size="13px" font-weight="bold" fill="#000" opacity="1" id="text">Price
                                        Development</text></g>
                            </g>
                            <path class="foreground" aria-hidden="true" d="" pointer-events="none" display="none" id="path_1" />
                        </g>
                    </g>
                </g>
                <path class="foreground" aria-hidden="true" d="" display="none" id="path" />
            </g>
        </g>
    </g>
</svg>