<?xml version='1.0' encoding='us-ascii'?>
<svg xmlns="http://www.w3.org/2000/svg" width="928" height="500" viewBox="-464,-250,928,500" style="max-width: 100%; height: auto; font: 10px sans-serif;"><g stroke="white" id="g_1"><path fill="rgb(66, 136, 181)" d="M0,-249A249,249,0,0,1,95.881,-229.8L0,0Z" id="path_17"><title id="title_17">&lt;5: 19,912,018</title></path><path fill="rgb(77, 163, 177)" d="M95.881,-229.8A249,249,0,0,1,179.014,-173.075L0,0Z" id="path_16"><title id="title_16">5-9: 20,501,982</title></path><path fill="rgb(101, 186, 170)" d="M179.014,-173.075A249,249,0,0,1,233.212,-87.253L0,0Z" id="path_15"><title id="title_15">10-14: 20,679,786</title></path><path fill="rgb(131, 204, 165)" d="M233.212,-87.253A249,249,0,0,1,248.46,16.396L0,0Z" id="path_14"><title id="title_14">15-19: 21,354,481</title></path><path fill="rgb(162, 217, 163)" d="M248.46,16.396A249,249,0,0,1,216.75,122.558L0,0Z" id="path_13"><title id="title_13">20-24: 22,604,232</title></path><path fill="rgb(191, 229, 160)" d="M216.75,122.558A249,249,0,0,1,145.78,201.864L0,0Z" id="path_12"><title id="title_12">25-29: 21,698,010</title></path><path fill="rgb(216, 239, 159)" d="M145.78,201.864A249,249,0,0,1,50.671,243.79L0,0Z" id="path_11"><title id="title_11">30-34: 21,183,639</title></path><path fill="rgb(235, 247, 166)" d="M50.671,243.79A249,249,0,0,1,-46.837,244.555L0,0Z" id="path_10"><title id="title_10">35-39: 19,855,782</title></path><path fill="rgb(247, 250, 175)" d="M-46.837,244.555A249,249,0,0,1,-141.018,205.219L0,0Z" id="path_9"><title id="title_9">40-44: 20,796,128</title></path><path fill="rgb(253, 245, 172)" d="M-141.018,205.219A249,249,0,0,1,-212.989,128.983L0,0Z" id="path_8"><title id="title_8">45-49: 21,370,368</title></path><path fill="rgb(254, 232, 154)" d="M-212.989,128.983A249,249,0,0,1,-247.821,24.204L0,0Z" id="path_7"><title id="title_7">50-54: 22,525,490</title></path><path fill="rgb(254, 213, 133)" d="M-247.821,24.204A249,249,0,0,1,-236.394,-78.222L0,0Z" id="path_6"><title id="title_6">55-59: 21,001,947</title></path><path fill="rgb(253, 191, 112)" d="M-236.394,-78.222A249,249,0,0,1,-192.81,-157.56L0,0Z" id="path_5"><title id="title_5">60-64: 18,415,681</title></path><path fill="rgb(251, 165, 95)" d="M-192.81,-157.56A249,249,0,0,1,-139.955,-205.946L0,0Z" id="path_4"><title id="title_4">65-69: 14,547,446</title></path><path fill="rgb(247, 136, 81)" d="M-139.955,-205.946A249,249,0,0,1,-93.908,-230.613L0,0Z" id="path_3"><title id="title_3">70-74: 10,587,721</title></path><path fill="rgb(239, 109, 74)" d="M-93.908,-230.613A249,249,0,0,1,-57.555,-242.257L0,0Z" id="path_2"><title id="title_2">75-79: 7,730,129</title></path><path fill="rgb(227, 84, 73)" d="M-57.555,-242.257A249,249,0,0,1,-29.287,-247.272L0,0Z" id="path_1"><title id="title_1">80-84: 5,811,429</title></path><path fill="rgb(209, 60, 75)" d="M-29.287,-247.272A249,249,0,0,1,0,-249L0,0Z" id="path"><title id="title">&#8805;85: 5,938,752</title></path></g><g text-anchor="middle" id="g"><text transform="translate(39.11372237762645,-195.3221869674973)" id="text_17"><tspan y="-0.4em" font-weight="bold" id="tspan_31">&lt;5</tspan><tspan x="0" y="0.7em" fill-opacity="0.7" id="tspan_30">19,912,018</tspan></text><text transform="translate(112.27451466634166,-164.54504962604446)" id="text_16"><tspan y="-0.4em" font-weight="bold" id="tspan_29">5-9</tspan><tspan x="0" y="0.7em" fill-opacity="0.7" id="tspan_28">20,501,982</tspan></text><text transform="translate(168.42593997920625,-106.36419859201132)" id="text_15"><tspan y="-0.4em" font-weight="bold" id="tspan_27">10-14</tspan><tspan x="0" y="0.7em" fill-opacity="0.7" id="tspan_26">20,679,786</tspan></text><text transform="translate(197.07897516160085,-28.99168069038295)" id="text_14"><tspan y="-0.4em" font-weight="bold" id="tspan_25">15-19</tspan><tspan x="0" y="0.7em" fill-opacity="0.7" id="tspan_24">21,354,481</tspan></text><text transform="translate(190.86758926714663,57.010554876687735)" id="text_13"><tspan y="-0.4em" font-weight="bold" id="tspan_23">20-24</tspan><tspan x="0" y="0.7em" fill-opacity="0.7" id="tspan_22">22,604,232</tspan></text><text transform="translate(148.44124679741742,132.8376311488135)" id="text_12"><tspan y="-0.4em" font-weight="bold" id="tspan_21">25-29</tspan><tspan x="0" y="0.7em" fill-opacity="0.7" id="tspan_20">21,698,010</tspan></text><text transform="translate(80.35012137280007,182.27588429459422)" id="text_11"><tspan y="-0.4em" font-weight="bold" id="tspan_19">30-34</tspan><tspan x="0" y="0.7em" fill-opacity="0.7" id="tspan_18">21,183,639</tspan></text><text transform="translate(1.5638158378033475,199.19386155207053)" id="text_10"><tspan y="-0.4em" font-weight="bold" id="tspan_17">35-39</tspan><tspan x="0" y="0.7em" fill-opacity="0.7" id="tspan_16">19,855,782</tspan></text><text transform="translate(-76.7719797123452,183.81159683503995)" id="text_9"><tspan y="-0.4em" font-weight="bold" id="tspan_15">40-44</tspan><tspan x="0" y="0.7em" fill-opacity="0.7" id="tspan_14">20,796,128</tspan></text><text transform="translate(-144.84942167794674,136.74532913253157)" id="text_8"><tspan y="-0.4em" font-weight="bold" id="tspan_13">45-49</tspan><tspan x="0" y="0.7em" fill-opacity="0.7" id="tspan_12">21,370,368</tspan></text><text transform="translate(-189.02900335378692,62.83849052192471)" id="text_7"><tspan y="-0.4em" font-weight="bold" id="tspan_11">50-54</tspan><tspan x="0" y="0.7em" fill-opacity="0.7" id="tspan_10">22,525,490</tspan></text><text transform="translate(-197.97189389578836,-22.085498122404186)" id="text_6"><tspan y="-0.4em" font-weight="bold" id="tspan_9">55-59</tspan><tspan x="0" y="0.7em" fill-opacity="0.7" id="tspan_8">21,001,947</tspan></text><text transform="translate(-174.59031274493717,-95.91070167413557)" id="text_5"><tspan y="-0.4em" font-weight="bold" id="tspan_7">60-64</tspan><tspan x="0" y="0.7em" fill-opacity="0.7" id="tspan_6">18,415,681</tspan></text><text transform="translate(-134.505825498966,-146.9313544034823)" id="text_4"><tspan y="-0.4em" font-weight="bold" id="tspan_5">65-69</tspan><tspan x="0" y="0.7em" fill-opacity="0.7" id="tspan_4">14,547,446</tspan></text><text transform="translate(-94.06412677226238,-175.59208425943282)" id="text_3"><tspan y="-0.4em" font-weight="bold" id="tspan_3">70-74</tspan></text><text transform="translate(-60.76397910153224,-189.70603270257)" id="text_2"><tspan y="-0.4em" font-weight="bold" id="tspan_2">75-79</tspan></text><text transform="translate(-34.79469030600643,-196.13762904274412)" id="text_1"><tspan y="-0.4em" font-weight="bold" id="tspan_1">80-84</tspan></text><text transform="translate(-11.735147265593108,-198.8540326939709)" id="text"><tspan y="-0.4em" font-weight="bold" id="tspan">&#8805;85</tspan></text></g></svg>