<?xml version='1.0' encoding='us-ascii'?>
<svg xmlns="http://www.w3.org/2000/svg" width="500" height="500">
    
    <g transform="translate(50, 50)" id="g_1">
        
        <rect x="10" y="10" width="50" height="50" fill="red" id="rect_1" />
        
        <rect x="10" y="10" width="50" height="50" fill="red" transform="translate(100, 100) scale(1.5) rotate(30)" id="rect" />

        
        <g transform="rotate(45)" id="g_2">
            <circle cx="100" cy="50" r="20" fill="green" id="circle" />
            
            <g transform="scale(0.5)" id="g_3">
                <ellipse cx="160" cy="60" rx="15" ry="10" fill="orange" id="ellipse_1" />
            </g>
        </g>
    </g>

    
    <g id="g">
        <path d="M150,150 L200,200 L150,250 Z" id="path_2" />
         
        <path d="M10,10 L50,50 Q100,15 150,50 T200,100 C250,150 300,100 350,150 L400,200" fill="yellow" id="path_1" />
        <path d="M150,150 L200,200 L150,250 Z" fill="yellow" id="path" />
    </g>

    
    <ellipse cx="300" cy="300" rx="30" ry="20" fill="purple" id="ellipse" />

    
    <polygon points="400,10 450,30 400,50" fill="yellow" id="polygon" />
    <polyline points="30,450 60,480 30,510" stroke="black" fill="none" id="polyline" />

    
    <line x1="300" y1="400" x2="350" y2="450" stroke="grey" id="line" />
    <text id="text_1">
        hello
    </text>
    <text id="text">
        hello2
    </text>
</svg>