<?xml version='1.0' encoding='us-ascii'?>
<svg xmlns="http://www.w3.org/2000/svg" xmlns:ns1="http://www.w3.org/1999/xlink" class="plot-d6a7b5" fill="currentColor" font-family="system-ui, sans-serif" font-size="10" text-anchor="middle" width="640" height="420" viewBox="0 0 640 420" style="background: rgb(255, 247, 235);">
  <style id="style">
    .plot-d6a7b5 {
      display: block;
      background: white;
      height: auto;
      height: intrinsic;
      max-width: 100%;
    }

    .plot-d6a7b5 text,
    .plot-d6a7b5 tspan {
      white-space: pre;
    }
  </style>
  <g aria-label="y-grid" stroke="currentColor" stroke-opacity="0.1" id="g_14">
    <line x1="40" x2="620" y1="347.6923076923077" y2="347.6923076923077" id="line_180" />
    <line x1="40" x2="620" y1="270.7692307692307" y2="270.7692307692307" id="line_179" />
    <line x1="40" x2="620" y1="193.84615384615384" y2="193.84615384615384" id="line_178" />
    <line x1="40" x2="620" y1="116.92307692307692" y2="116.92307692307692" id="line_177" />
    <line x1="40" x2="620" y1="40" y2="40" id="line_176" />
  </g>
  <g aria-label="y-axis tick" fill="none" stroke="currentColor" id="g_13">
    <path transform="translate(40,347.6923076923077)" d="M0,0L-4,0" id="path_16" />
    <path transform="translate(40,270.7692307692307)" d="M0,0L-4,0" id="path_15" />
    <path transform="translate(40,193.84615384615384)" d="M0,0L-4,0" id="path_14" />
    <path transform="translate(40,116.92307692307692)" d="M0,0L-4,0" id="path_13" />
    <path transform="translate(40,40)" d="M0,0L-4,0" id="path_12" />
  </g>
  <g aria-label="y-axis tick label" text-anchor="end" font-variant="tabular-nums" transform="translate(-9,0)" id="g_12"><text y="0.32em" transform="translate(40,347.6923076923077)" id="text_19">0.0</text><text y="0.32em" transform="translate(40,270.7692307692307)" id="text_18">0.5</text><text y="0.32em" transform="translate(40,193.84615384615384)" id="text_17">1.0</text><text y="0.32em" transform="translate(40,116.92307692307692)" id="text_16">1.5</text><text y="0.32em" transform="translate(40,40)" id="text_15">2.0</text>
  </g>
  <g aria-label="y-axis label" text-anchor="start" transform="translate(-37,-37)" id="g_11"><text transform="translate(40,40)" id="text_14">
      <tspan x="0" y="0.71em" id="tspan_3">&#8593; temperature deviation (&#176;C)</tspan>
      <tspan x="0" dy="1em" id="tspan_2"> from 1850-1900 average</tspan>
    </text></g>
  <g aria-label="x-axis tick" fill="none" stroke="currentColor" id="g_10">
    <path transform="translate(73.71685078475693,390)" d="M0,0L0,6" id="path_11" />
    <path transform="translate(141.15978478876826,390)" d="M0,0L0,6" id="path_10" />
    <path transform="translate(208.6027187927796,390)" d="M0,0L0,6" id="path_9" />
    <path transform="translate(276.0364203622935,390)" d="M0,0L0,6" id="path_8" />
    <path transform="translate(343.4793543663048,390)" d="M0,0L0,6" id="path_7" />
    <path transform="translate(410.9222883703161,390)" d="M0,0L0,6" id="path_6" />
    <path transform="translate(478.36522237432746,390)" d="M0,0L0,6" id="path_5" />
    <path transform="translate(545.8081563783388,390)" d="M0,0L0,6" id="path_4" />
    <path transform="translate(613.2510903823502,390)" d="M0,0L0,6" id="path_3" />
  </g>
  <g aria-label="x-axis tick label" font-variant="tabular-nums" transform="translate(0,9)" id="g_9"><text y="0.71em" transform="translate(73.71685078475693,390)" id="text_13">1860</text><text y="0.71em" transform="translate(141.15978478876826,390)" id="text_12">1880</text><text y="0.71em" transform="translate(208.6027187927796,390)" id="text_11">1900</text><text y="0.71em" transform="translate(276.0364203622935,390)" id="text_10">1920</text><text y="0.71em" transform="translate(343.4793543663048,390)" id="text_9">1940</text><text y="0.71em" transform="translate(410.9222883703161,390)" id="text_8">1960</text><text y="0.71em" transform="translate(478.36522237432746,390)" id="text_7">1980</text><text y="0.71em" transform="translate(545.8081563783388,390)" id="text_6">2000</text><text y="0.71em" transform="translate(613.2510903823502,390)" id="text_5">2020</text></g>
  <g aria-label="line" fill="none" stroke="currentColor" stroke-linejoin="round" stroke-linecap="round" transform="translate(0,-20)" id="g_8">
    <marker viewBox="-5 -5 10 10" markerWidth="6.67" markerHeight="6.67" orient="auto-start-reverse" fill="none" stroke="currentColor" stroke-width="1.5" stroke-linecap="round" stroke-linejoin="round" id="marker_1">
      <path d="M-1.5,-3l3,3l-3,3" id="path_2" />
    </marker>
    <marker viewBox="-5 -5 10 10" markerWidth="6.67" markerHeight="6.67" orient="auto" fill="none" stroke="currentColor" stroke-width="1.5" stroke-linecap="round" stroke-linejoin="round" id="marker">
      <path d="M-1.5,-3l3,3l-3,3" id="path_1" />
    </marker>
    <path marker-start="url(#plot-marker-1)" marker-end="url(#plot-marker-2)" d="M40,281.692L208.603,281.692" id="path" />
  </g>
  <g aria-label="text" font-weight="bold" transform="translate(0,-32)" id="g_7"><text transform="translate(124.30135939638981,281.6923076923077)" id="text_4">
      <tspan x="0" y="-0.18em" id="tspan_1">Pre-industrial reference period</tspan>
      <tspan x="0" dy="1em" id="tspan">(1850-1900)</tspan>
    </text></g>
  <g aria-label="rule" stroke-width="2" id="g_6">
    <line x1="40" x2="40" y1="347.6923076923077" y2="370.7692307692308" stroke="cadetblue" id="line_175" />
    <line x1="43.3698385915762" x2="43.3698385915762" y1="347.6923076923077" y2="352.9230769230769" stroke="cadetblue" id="line_174" />
    <line x1="46.7396771831524" x2="46.7396771831524" y1="347.6923076923077" y2="348.9230769230769" stroke="cadetblue" id="line_173" />
    <line x1="50.11874820922606" x2="50.11874820922606" y1="347.6923076923077" y2="349.84615384615387" stroke="cadetblue" id="line_172" />
    <line x1="53.48858680080227" x2="53.48858680080227" y1="347.6923076923077" y2="347.6923076923077" stroke="coral" id="line_171" />
    <line x1="56.858425392378464" x2="56.858425392378464" y1="347.6923076923077" y2="346.9230769230769" stroke="coral" id="line_170" />
    <line x1="60.22826398395466" x2="60.22826398395466" y1="347.6923076923077" y2="364.9230769230769" stroke="cadetblue" id="line_169" />
    <line x1="63.607335010028336" x2="63.607335010028336" y1="347.6923076923077" y2="386.61538461538464" stroke="cadetblue" id="line_168" />
    <line x1="66.97717360160453" x2="66.97717360160453" y1="347.6923076923077" y2="354.9230769230769" stroke="cadetblue" id="line_167" />
    <line x1="70.34701219318073" x2="70.34701219318073" y1="347.6923076923077" y2="337.38461538461536" stroke="coral" id="line_166" />
    <line x1="73.71685078475693" x2="73.71685078475693" y1="347.6923076923077" y2="360.92307692307696" stroke="cadetblue" id="line_165" />
    <line x1="77.0959218108306" x2="77.0959218108306" y1="347.6923076923077" y2="373.07692307692304" stroke="cadetblue" id="line_164" />
    <line x1="80.4657604024068" x2="80.4657604024068" y1="347.6923076923077" y2="390" stroke="cadetblue" id="line_163" />
    <line x1="83.835598993983" x2="83.835598993983" y1="347.6923076923077" y2="351.8461538461538" stroke="cadetblue" id="line_162" />
    <line x1="87.2054375855592" x2="87.2054375855592" y1="347.6923076923077" y2="356.7692307692307" stroke="cadetblue" id="line_161" />
    <line x1="90.58450861163287" x2="90.58450861163287" y1="347.6923076923077" y2="342.3076923076923" stroke="coral" id="line_160" />
    <line x1="93.95434720320907" x2="93.95434720320907" y1="347.6923076923077" y2="336" stroke="coral" id="line_159" />
    <line x1="97.32418579478527" x2="97.32418579478527" y1="347.6923076923077" y2="329.07692307692304" stroke="coral" id="line_158" />
    <line x1="100.69402438636146" x2="100.69402438636146" y1="347.6923076923077" y2="334.6153846153846" stroke="coral" id="line_157" />
    <line x1="104.07309541243514" x2="104.07309541243514" y1="347.6923076923077" y2="334.46153846153845" stroke="coral" id="line_156" />
    <line x1="107.44293400401133" x2="107.44293400401133" y1="347.6923076923077" y2="345.53846153846155" stroke="coral" id="line_155" />
    <line x1="110.81277259558753" x2="110.81277259558753" y1="347.6923076923077" y2="351.0769230769231" stroke="cadetblue" id="line_154" />
    <line x1="114.18261118716373" x2="114.18261118716373" y1="347.6923076923077" y2="346" stroke="coral" id="line_153" />
    <line x1="117.5616822132374" x2="117.5616822132374" y1="347.6923076923077" y2="340.4615384615384" stroke="coral" id="line_152" />
    <line x1="120.9315208048136" x2="120.9315208048136" y1="347.6923076923077" y2="347.8461538461538" stroke="cadetblue" id="line_151" />
    <line x1="124.30135939638981" x2="124.30135939638981" y1="347.6923076923077" y2="353.07692307692304" stroke="cadetblue" id="line_150" />
    <line x1="127.671197987966" x2="127.671197987966" y1="347.6923076923077" y2="353.84615384615387" stroke="cadetblue" id="line_149" />
    <line x1="131.05026901403966" x2="131.05026901403966" y1="347.6923076923077" y2="294.46153846153845" stroke="coral" id="line_148" />
    <line x1="134.42010760561587" x2="134.42010760561587" y1="347.6923076923077" y2="281.6923076923077" stroke="coral" id="line_147" />
    <line x1="137.78994619719205" x2="137.78994619719205" y1="347.6923076923077" y2="334.46153846153845" stroke="coral" id="line_146" />
    <line x1="141.15978478876826" x2="141.15978478876826" y1="347.6923076923077" y2="346.6153846153846" stroke="coral" id="line_145" />
    <line x1="144.53885581484195" x2="144.53885581484195" y1="347.6923076923077" y2="328.92307692307696" stroke="coral" id="line_144" />
    <line x1="147.90869440641814" x2="147.90869440641814" y1="347.6923076923077" y2="337.0769230769231" stroke="coral" id="line_143" />
    <line x1="151.27853299799432" x2="151.27853299799432" y1="347.6923076923077" y2="345.38461538461536" stroke="coral" id="line_142" />
    <line x1="154.64837158957053" x2="154.64837158957053" y1="347.6923076923077" y2="371.69230769230774" stroke="cadetblue" id="line_141" />
    <line x1="158.0274426156442" x2="158.0274426156442" y1="347.6923076923077" y2="365.38461538461536" stroke="cadetblue" id="line_140" />
    <line x1="161.3972812072204" x2="161.3972812072204" y1="347.6923076923077" y2="369.6923076923077" stroke="cadetblue" id="line_139" />
    <line x1="164.7671197987966" x2="164.7671197987966" y1="347.6923076923077" y2="374.9230769230769" stroke="cadetblue" id="line_138" />
    <line x1="168.1369583903728" x2="168.1369583903728" y1="347.6923076923077" y2="343.6923076923077" stroke="coral" id="line_137" />
    <line x1="171.5160294164465" x2="171.5160294164465" y1="347.6923076923077" y2="324.1538461538461" stroke="coral" id="line_136" />
    <line x1="174.88586800802267" x2="174.88586800802267" y1="347.6923076923077" y2="369.38461538461536" stroke="cadetblue" id="line_135" />
    <line x1="178.25570659959885" x2="178.25570659959885" y1="347.6923076923077" y2="350.7692307692308" stroke="cadetblue" id="line_134" />
    <line x1="181.62554519117506" x2="181.62554519117506" y1="347.6923076923077" y2="360.3076923076923" stroke="cadetblue" id="line_133" />
    <line x1="185.00461621724875" x2="185.00461621724875" y1="347.6923076923077" y2="357.07692307692304" stroke="cadetblue" id="line_132" />
    <line x1="188.37445480882496" x2="188.37445480882496" y1="347.6923076923077" y2="355.5384615384615" stroke="cadetblue" id="line_131" />
    <line x1="191.74429340040112" x2="191.74429340040112" y1="347.6923076923077" y2="344" stroke="coral" id="line_130" />
    <line x1="195.11413199197733" x2="195.11413199197733" y1="347.6923076923077" y2="330.46153846153845" stroke="coral" id="line_129" />
    <line x1="198.49320301805102" x2="198.49320301805102" y1="347.6923076923077" y2="328" stroke="coral" id="line_128" />
    <line x1="201.8630416096272" x2="201.8630416096272" y1="347.6923076923077" y2="359.84615384615387" stroke="cadetblue" id="line_127" />
    <line x1="205.2328802012034" x2="205.2328802012034" y1="347.6923076923077" y2="333.84615384615387" stroke="coral" id="line_126" />
    <line x1="208.6027187927796" x2="208.6027187927796" y1="347.6923076923077" y2="317.53846153846155" stroke="coral" id="line_125" />
    <line x1="211.9725573843558" x2="211.9725573843558" y1="347.6923076923077" y2="329.2307692307692" stroke="coral" id="line_124" />
    <line x1="215.342395975932" x2="215.342395975932" y1="347.6923076923077" y2="353.84615384615387" stroke="cadetblue" id="line_123" />
    <line x1="218.7122345675082" x2="218.7122345675082" y1="347.6923076923077" y2="369.0769230769231" stroke="cadetblue" id="line_122" />
    <line x1="222.08207315908442" x2="222.08207315908442" y1="347.6923076923077" y2="377.84615384615387" stroke="cadetblue" id="line_121" />
    <line x1="225.46114418515805" x2="225.46114418515805" y1="347.6923076923077" y2="350.1538461538462" stroke="cadetblue" id="line_120" />
    <line x1="228.83098277673426" x2="228.83098277673426" y1="347.6923076923077" y2="336.9230769230769" stroke="coral" id="line_119" />
    <line x1="232.20082136831047" x2="232.20082136831047" y1="347.6923076923077" y2="363.0769230769231" stroke="cadetblue" id="line_118" />
    <line x1="235.57065995988665" x2="235.57065995988665" y1="347.6923076923077" y2="366.1538461538462" stroke="cadetblue" id="line_117" />
    <line x1="238.94973098596031" x2="238.94973098596031" y1="347.6923076923077" y2="376" stroke="cadetblue" id="line_116" />
    <line x1="242.31956957753653" x2="242.31956957753653" y1="347.6923076923077" y2="369.6923076923077" stroke="cadetblue" id="line_115" />
    <line x1="245.6894081691127" x2="245.6894081691127" y1="347.6923076923077" y2="371.8461538461538" stroke="cadetblue" id="line_114" />
    <line x1="249.05924676068892" x2="249.05924676068892" y1="347.6923076923077" y2="361.53846153846155" stroke="cadetblue" id="line_113" />
    <line x1="252.4383177867626" x2="252.4383177867626" y1="347.6923076923077" y2="356.92307692307696" stroke="cadetblue" id="line_112" />
    <line x1="255.80815637833882" x2="255.80815637833882" y1="347.6923076923077" y2="328.3076923076923" stroke="coral" id="line_111" />
    <line x1="259.177994969915" x2="259.177994969915" y1="347.6923076923077" y2="320" stroke="coral" id="line_110" />
    <line x1="262.5478335614912" x2="262.5478335614912" y1="347.6923076923077" y2="356.7692307692307" stroke="cadetblue" id="line_109" />
    <line x1="265.9269045875649" x2="265.9269045875649" y1="347.6923076923077" y2="379.53846153846155" stroke="cadetblue" id="line_108" />
    <line x1="269.29674317914106" x2="269.29674317914106" y1="347.6923076923077" y2="354.6153846153846" stroke="cadetblue" id="line_107" />
    <line x1="272.66658177071724" x2="272.66658177071724" y1="347.6923076923077" y2="344.3076923076923" stroke="coral" id="line_106" />
    <line x1="276.0364203622935" x2="276.0364203622935" y1="347.6923076923077" y2="335.3846153846154" stroke="coral" id="line_105" />
    <line x1="279.4154913883672" x2="279.4154913883672" y1="347.6923076923077" y2="326.7692307692308" stroke="coral" id="line_104" />
    <line x1="282.78532997994336" x2="282.78532997994336" y1="347.6923076923077" y2="340.15384615384613" stroke="coral" id="line_103" />
    <line x1="286.1551685715195" x2="286.1551685715195" y1="347.6923076923077" y2="334.9230769230769" stroke="coral" id="line_102" />
    <line x1="289.5250071630957" x2="289.5250071630957" y1="347.6923076923077" y2="336.3076923076923" stroke="coral" id="line_101" />
    <line x1="292.9040781891694" x2="292.9040781891694" y1="347.6923076923077" y2="329.84615384615387" stroke="coral" id="line_100" />
    <line x1="296.27391678074554" x2="296.27391678074554" y1="347.6923076923077" y2="309.0769230769231" stroke="coral" id="line_99" />
    <line x1="299.6437553723218" x2="299.6437553723218" y1="347.6923076923077" y2="327.2307692307692" stroke="coral" id="line_98" />
    <line x1="303.01359396389796" x2="303.01359396389796" y1="347.6923076923077" y2="325.6923076923077" stroke="coral" id="line_97" />
    <line x1="306.39266498997165" x2="306.39266498997165" y1="347.6923076923077" y2="353.6923076923077" stroke="cadetblue" id="line_96" />
    <line x1="309.7625035815479" x2="309.7625035815479" y1="347.6923076923077" y2="318.15384615384613" stroke="coral" id="line_95" />
    <line x1="313.1323421731241" x2="313.1323421731241" y1="347.6923076923077" y2="308.9230769230769" stroke="coral" id="line_94" />
    <line x1="316.5021807647003" x2="316.5021807647003" y1="347.6923076923077" y2="315.38461538461536" stroke="coral" id="line_93" />
    <line x1="319.88125179077394" x2="319.88125179077394" y1="347.6923076923077" y2="345.2307692307692" stroke="coral" id="line_92" />
    <line x1="323.2510903823501" x2="323.2510903823501" y1="347.6923076923077" y2="322.30769230769226" stroke="coral" id="line_91" />
    <line x1="326.62092897392637" x2="326.62092897392637" y1="347.6923076923077" y2="331.84615384615387" stroke="coral" id="line_90" />
    <line x1="329.9907675655025" x2="329.9907675655025" y1="347.6923076923077" y2="321.0769230769231" stroke="coral" id="line_89" />
    <line x1="333.3698385915762" x2="333.3698385915762" y1="347.6923076923077" y2="297.0769230769231" stroke="coral" id="line_88" />
    <line x1="336.7396771831524" x2="336.7396771831524" y1="347.6923076923077" y2="296" stroke="coral" id="line_87" />
    <line x1="340.1095157747286" x2="340.1095157747286" y1="347.6923076923077" y2="299.38461538461536" stroke="coral" id="line_86" />
    <line x1="343.4793543663048" x2="343.4793543663048" y1="347.6923076923077" y2="286.61538461538464" stroke="coral" id="line_85" />
    <line x1="346.8584253923785" x2="346.8584253923785" y1="347.6923076923077" y2="293.5384615384615" stroke="coral" id="line_84" />
    <line x1="350.22826398395466" x2="350.22826398395466" y1="347.6923076923077" y2="292" stroke="coral" id="line_83" />
    <line x1="353.59810257553085" x2="353.59810257553085" y1="347.6923076923077" y2="283.6923076923077" stroke="coral" id="line_82" />
    <line x1="356.9679411671071" x2="356.9679411671071" y1="347.6923076923077" y2="267.38461538461536" stroke="coral" id="line_81" />
    <line x1="360.3470121931807" x2="360.3470121931807" y1="347.6923076923077" y2="286.9230769230769" stroke="coral" id="line_80" />
    <line x1="363.7168507847569" x2="363.7168507847569" y1="347.6923076923077" y2="309.3846153846154" stroke="coral" id="line_79" />
    <line x1="367.08668937633314" x2="367.08668937633314" y1="347.6923076923077" y2="298.7692307692307" stroke="coral" id="line_78" />
    <line x1="370.4565279679093" x2="370.4565279679093" y1="347.6923076923077" y2="313.2307692307692" stroke="coral" id="line_77" />
    <line x1="373.83559899398296" x2="373.83559899398296" y1="347.6923076923077" y2="314.46153846153845" stroke="coral" id="line_76" />
    <line x1="377.2054375855592" x2="377.2054375855592" y1="347.6923076923077" y2="324.3076923076923" stroke="coral" id="line_75" />
    <line x1="380.5752761771354" x2="380.5752761771354" y1="347.6923076923077" y2="296.6153846153846" stroke="coral" id="line_74" />
    <line x1="383.9451147687116" x2="383.9451147687116" y1="347.6923076923077" y2="285.38461538461536" stroke="coral" id="line_73" />
    <line x1="387.32418579478525" x2="387.32418579478525" y1="347.6923076923077" y2="274.30769230769226" stroke="coral" id="line_72" />
    <line x1="390.69402438636143" x2="390.69402438636143" y1="347.6923076923077" y2="304.3076923076923" stroke="coral" id="line_71" />
    <line x1="394.0638629779377" x2="394.0638629779377" y1="347.6923076923077" y2="312" stroke="coral" id="line_70" />
    <line x1="397.4337015695139" x2="397.4337015695139" y1="347.6923076923077" y2="324.46153846153845" stroke="coral" id="line_69" />
    <line x1="400.81277259558755" x2="400.81277259558755" y1="347.6923076923077" y2="289.23076923076917" stroke="coral" id="line_68" />
    <line x1="404.18261118716373" x2="404.18261118716373" y1="347.6923076923077" y2="288.46153846153845" stroke="coral" id="line_67" />
    <line x1="407.55244977873997" x2="407.55244977873997" y1="347.6923076923077" y2="291.2307692307692" stroke="coral" id="line_66" />
    <line x1="410.9222883703161" x2="410.9222883703161" y1="347.6923076923077" y2="300" stroke="coral" id="line_65" />
    <line x1="414.3013593963898" x2="414.3013593963898" y1="347.6923076923077" y2="288.30769230769226" stroke="coral" id="line_64" />
    <line x1="417.671197987966" x2="417.671197987966" y1="347.6923076923077" y2="297.38461538461536" stroke="coral" id="line_63" />
    <line x1="421.04103657954215" x2="421.04103657954215" y1="347.6923076923077" y2="290.7692307692308" stroke="coral" id="line_62" />
    <line x1="424.41087517111845" x2="424.41087517111845" y1="347.6923076923077" y2="331.84615384615387" stroke="coral" id="line_61" />
    <line x1="427.7899461971921" x2="427.7899461971921" y1="347.6923076923077" y2="313.0769230769231" stroke="coral" id="line_60" />
    <line x1="431.1597847887682" x2="431.1597847887682" y1="347.6923076923077" y2="304" stroke="coral" id="line_59" />
    <line x1="434.5296233803445" x2="434.5296233803445" y1="347.6923076923077" y2="299.0769230769231" stroke="coral" id="line_58" />
    <line x1="437.89946197192063" x2="437.89946197192063" y1="347.6923076923077" y2="310.7692307692307" stroke="coral" id="line_57" />
    <line x1="441.27853299799426" x2="441.27853299799426" y1="347.6923076923077" y2="287.6923076923077" stroke="coral" id="line_56" />
    <line x1="444.64837158957056" x2="444.64837158957056" y1="347.6923076923077" y2="295.07692307692304" stroke="coral" id="line_55" />
    <line x1="448.0182101811467" x2="448.0182101811467" y1="347.6923076923077" y2="313.2307692307692" stroke="coral" id="line_54" />
    <line x1="451.388048772723" x2="451.388048772723" y1="347.6923076923077" y2="296.3076923076923" stroke="coral" id="line_53" />
    <line x1="454.7671197987966" x2="454.7671197987966" y1="347.6923076923077" y2="275.53846153846155" stroke="coral" id="line_52" />
    <line x1="458.1369583903728" x2="458.1369583903728" y1="347.6923076923077" y2="307.2307692307692" stroke="coral" id="line_51" />
    <line x1="461.50679698194904" x2="461.50679698194904" y1="347.6923076923077" y2="297.2307692307692" stroke="coral" id="line_50" />
    <line x1="464.8766355735252" x2="464.8766355735252" y1="347.6923076923077" y2="312.15384615384613" stroke="coral" id="line_49" />
    <line x1="468.25570659959885" x2="468.25570659959885" y1="347.6923076923077" y2="261.38461538461536" stroke="coral" id="line_48" />
    <line x1="471.6255451911751" x2="471.6255451911751" y1="347.6923076923077" y2="280.6153846153846" stroke="coral" id="line_47" />
    <line x1="474.9953837827513" x2="474.9953837827513" y1="347.6923076923077" y2="268.9230769230769" stroke="coral" id="line_46" />
    <line x1="478.36522237432746" x2="478.36522237432746" y1="347.6923076923077" y2="250.15384615384616" stroke="coral" id="line_45" />
    <line x1="481.74429340040115" x2="481.74429340040115" y1="347.6923076923077" y2="242.3076923076923" stroke="coral" id="line_44" />
    <line x1="485.11413199197733" x2="485.11413199197733" y1="347.6923076923077" y2="275.53846153846155" stroke="coral" id="line_43" />
    <line x1="488.4839705835535" x2="488.4839705835535" y1="347.6923076923077" y2="247.69230769230765" stroke="coral" id="line_42" />
    <line x1="491.85380917512975" x2="491.85380917512975" y1="347.6923076923077" y2="273.5384615384615" stroke="coral" id="line_41" />
    <line x1="495.2328802012034" x2="495.2328802012034" y1="347.6923076923077" y2="274" stroke="coral" id="line_40" />
    <line x1="498.60271879277957" x2="498.60271879277957" y1="347.6923076923077" y2="265.84615384615387" stroke="coral" id="line_39" />
    <line x1="501.9725573843558" x2="501.9725573843558" y1="347.6923076923077" y2="244.30769230769232" stroke="coral" id="line_38" />
    <line x1="505.342395975932" x2="505.342395975932" y1="347.6923076923077" y2="237.53846153846155" stroke="coral" id="line_37" />
    <line x1="508.72146700200574" x2="508.72146700200574" y1="347.6923076923077" y2="255.07692307692304" stroke="coral" id="line_36" />
    <line x1="512.0913055935819" x2="512.0913055935819" y1="347.6923076923077" y2="226.3076923076923" stroke="coral" id="line_35" />
    <line x1="515.4611441851581" x2="515.4611441851581" y1="347.6923076923077" y2="228.15384615384613" stroke="coral" id="line_34" />
    <line x1="518.8309827767343" x2="518.8309827767343" y1="347.6923076923077" y2="260.3076923076923" stroke="coral" id="line_33" />
    <line x1="522.2100538028079" x2="522.2100538028079" y1="347.6923076923077" y2="251.38461538461536" stroke="coral" id="line_32" />
    <line x1="525.5798923943842" x2="525.5798923943842" y1="347.6923076923077" y2="243.8461538461538" stroke="coral" id="line_31" />
    <line x1="528.9497309859604" x2="528.9497309859604" y1="347.6923076923077" y2="219.5384615384615" stroke="coral" id="line_30" />
    <line x1="532.3195695775365" x2="532.3195695775365" y1="347.6923076923077" y2="236.46153846153842" stroke="coral" id="line_29" />
    <line x1="535.6986406036102" x2="535.6986406036102" y1="347.6923076923077" y2="215.0769230769231" stroke="coral" id="line_28" />
    <line x1="539.0684791951865" x2="539.0684791951865" y1="347.6923076923077" y2="191.84615384615387" stroke="coral" id="line_27" />
    <line x1="542.4383177867626" x2="542.4383177867626" y1="347.6923076923077" y2="229.07692307692304" stroke="coral" id="line_26" />
    <line x1="545.8081563783388" x2="545.8081563783388" y1="347.6923076923077" y2="228.9230769230769" stroke="coral" id="line_25" />
    <line x1="549.1872274044125" x2="549.1872274044125" y1="347.6923076923077" y2="208.30769230769232" stroke="coral" id="line_24" />
    <line x1="552.5570659959886" x2="552.5570659959886" y1="347.6923076923077" y2="193.84615384615384" stroke="coral" id="line_23" />
    <line x1="555.9269045875649" x2="555.9269045875649" y1="347.6923076923077" y2="196.6153846153846" stroke="coral" id="line_22" />
    <line x1="559.2967431791411" x2="559.2967431791411" y1="347.6923076923077" y2="210.15384615384613" stroke="coral" id="line_21" />
    <line x1="562.6758142052147" x2="562.6758142052147" y1="347.6923076923077" y2="184.46153846153848" stroke="coral" id="line_20" />
    <line x1="566.0456527967909" x2="566.0456527967909" y1="347.6923076923077" y2="192.15384615384613" stroke="coral" id="line_19" />
    <line x1="569.4154913883672" x2="569.4154913883672" y1="347.6923076923077" y2="190.15384615384616" stroke="coral" id="line_18" />
    <line x1="572.7853299799433" x2="572.7853299799433" y1="347.6923076923077" y2="209.53846153846155" stroke="coral" id="line_17" />
    <line x1="576.164401006017" x2="576.164401006017" y1="347.6923076923077" y2="188.92307692307693" stroke="coral" id="line_16" />
    <line x1="579.5342395975932" x2="579.5342395975932" y1="347.6923076923077" y2="178.3076923076923" stroke="coral" id="line_15" />
    <line x1="582.9040781891694" x2="582.9040781891694" y1="347.6923076923077" y2="195.07692307692312" stroke="coral" id="line_14" />
    <line x1="586.2739167807456" x2="586.2739167807456" y1="347.6923076923077" y2="192.15384615384613" stroke="coral" id="line_13" />
    <line x1="589.6529878068193" x2="589.6529878068193" y1="347.6923076923077" y2="189.2307692307692" stroke="coral" id="line_12" />
    <line x1="593.0228263983955" x2="593.0228263983955" y1="347.6923076923077" y2="178.3076923076923" stroke="coral" id="line_11" />
    <line x1="596.3926649899716" x2="596.3926649899716" y1="347.6923076923077" y2="156.15384615384613" stroke="coral" id="line_10" />
    <line x1="599.7625035815479" x2="599.7625035815479" y1="347.6923076923077" y2="134.92307692307696" stroke="coral" id="line_9" />
    <line x1="603.1415746076216" x2="603.1415746076216" y1="347.6923076923077" y2="149.84615384615387" stroke="coral" id="line_8" />
    <line x1="606.5114131991977" x2="606.5114131991977" y1="347.6923076923077" y2="161.53846153846152" stroke="coral" id="line_7" />
    <line x1="609.881251790774" x2="609.881251790774" y1="347.6923076923077" y2="140.30769230769226" stroke="coral" id="line_6" />
    <line x1="613.2510903823502" x2="613.2510903823502" y1="347.6923076923077" y2="136.3076923076923" stroke="coral" id="line_5" />
    <line x1="616.6301614084238" x2="616.6301614084238" y1="347.6923076923077" y2="159.99999999999994" stroke="coral" id="line_4" />
    <line x1="620" x2="620" y1="347.6923076923077" y2="153.53846153846155" stroke="coral" id="line_3" />
  </g>
  <g aria-label="rule" stroke="currentColor" id="g_5">
    <line x1="40" x2="620" y1="347.6923076923077" y2="347.6923076923077" id="line_2" />
  </g>
  <g aria-label="rule" stroke="currentColor" stroke-dasharray="3" id="g_4">
    <line x1="40" x2="620" y1="116.92307692307692" y2="116.92307692307692" id="line_1" />
    <line x1="40" x2="620" y1="40" y2="40" id="line" />
  </g>
  <g aria-label="text" fill="black" stroke="#fff7eb" stroke-width="8" stroke-linejoin="round" paint-order="stroke" text-anchor="start" transform="translate(20,0)" id="g_3"><text y="0.32em" transform="translate(40,116.92307692307692)" id="text_3">+1,5&#176;C
      (from 1850-1900)</text><text y="0.32em" transform="translate(40,40)" id="text_2">+2&#176;C (from 1850-1900)</text></g>
  <g aria-label="dot" stroke="white" id="g_2">
    <circle cx="40" cy="370.7692307692308" r="2" fill="cadetblue" id="circle_172" />
    <circle cx="43.3698385915762" cy="352.9230769230769" r="2" fill="cadetblue" id="circle_171" />
    <circle cx="46.7396771831524" cy="348.9230769230769" r="2" fill="cadetblue" id="circle_170" />
    <circle cx="50.11874820922606" cy="349.84615384615387" r="2" fill="cadetblue" id="circle_169" />
    <circle cx="53.48858680080227" cy="347.6923076923077" r="2" fill="coral" id="circle_168" />
    <circle cx="56.858425392378464" cy="346.9230769230769" r="2" fill="coral" id="circle_167" />
    <circle cx="60.22826398395466" cy="364.9230769230769" r="2" fill="cadetblue" id="circle_166" />
    <circle cx="63.607335010028336" cy="386.61538461538464" r="2" fill="cadetblue" id="circle_165" />
    <circle cx="66.97717360160453" cy="354.9230769230769" r="2" fill="cadetblue" id="circle_164" />
    <circle cx="70.34701219318073" cy="337.38461538461536" r="2" fill="coral" id="circle_163" />
    <circle cx="73.71685078475693" cy="360.92307692307696" r="2" fill="cadetblue" id="circle_162" />
    <circle cx="77.0959218108306" cy="373.07692307692304" r="2" fill="cadetblue" id="circle_161" />
    <circle cx="80.4657604024068" cy="390" r="2" fill="cadetblue" id="circle_160" />
    <circle cx="83.835598993983" cy="351.8461538461538" r="2" fill="cadetblue" id="circle_159" />
    <circle cx="87.2054375855592" cy="356.7692307692307" r="2" fill="cadetblue" id="circle_158" />
    <circle cx="90.58450861163287" cy="342.3076923076923" r="2" fill="coral" id="circle_157" />
    <circle cx="93.95434720320907" cy="336" r="2" fill="coral" id="circle_156" />
    <circle cx="97.32418579478527" cy="329.07692307692304" r="2" fill="coral" id="circle_155" />
    <circle cx="100.69402438636146" cy="334.6153846153846" r="2" fill="coral" id="circle_154" />
    <circle cx="104.07309541243514" cy="334.46153846153845" r="2" fill="coral" id="circle_153" />
    <circle cx="107.44293400401133" cy="345.53846153846155" r="2" fill="coral" id="circle_152" />
    <circle cx="110.81277259558753" cy="351.0769230769231" r="2" fill="cadetblue" id="circle_151" />
    <circle cx="114.18261118716373" cy="346" r="2" fill="coral" id="circle_150" />
    <circle cx="117.5616822132374" cy="340.4615384615384" r="2" fill="coral" id="circle_149" />
    <circle cx="120.9315208048136" cy="347.8461538461538" r="2" fill="cadetblue" id="circle_148" />
    <circle cx="124.30135939638981" cy="353.07692307692304" r="2" fill="cadetblue" id="circle_147" />
    <circle cx="127.671197987966" cy="353.84615384615387" r="2" fill="cadetblue" id="circle_146" />
    <circle cx="131.05026901403966" cy="294.46153846153845" r="2" fill="coral" id="circle_145" />
    <circle cx="134.42010760561587" cy="281.6923076923077" r="2" fill="coral" id="circle_144" />
    <circle cx="137.78994619719205" cy="334.46153846153845" r="2" fill="coral" id="circle_143" />
    <circle cx="141.15978478876826" cy="346.6153846153846" r="2" fill="coral" id="circle_142" />
    <circle cx="144.53885581484195" cy="328.92307692307696" r="2" fill="coral" id="circle_141" />
    <circle cx="147.90869440641814" cy="337.0769230769231" r="2" fill="coral" id="circle_140" />
    <circle cx="151.27853299799432" cy="345.38461538461536" r="2" fill="coral" id="circle_139" />
    <circle cx="154.64837158957053" cy="371.69230769230774" r="2" fill="cadetblue" id="circle_138" />
    <circle cx="158.0274426156442" cy="365.38461538461536" r="2" fill="cadetblue" id="circle_137" />
    <circle cx="161.3972812072204" cy="369.6923076923077" r="2" fill="cadetblue" id="circle_136" />
    <circle cx="164.7671197987966" cy="374.9230769230769" r="2" fill="cadetblue" id="circle_135" />
    <circle cx="168.1369583903728" cy="343.6923076923077" r="2" fill="coral" id="circle_134" />
    <circle cx="171.5160294164465" cy="324.1538461538461" r="2" fill="coral" id="circle_133" />
    <circle cx="174.88586800802267" cy="369.38461538461536" r="2" fill="cadetblue" id="circle_132" />
    <circle cx="178.25570659959885" cy="350.7692307692308" r="2" fill="cadetblue" id="circle_131" />
    <circle cx="181.62554519117506" cy="360.3076923076923" r="2" fill="cadetblue" id="circle_130" />
    <circle cx="185.00461621724875" cy="357.07692307692304" r="2" fill="cadetblue" id="circle_129" />
    <circle cx="188.37445480882496" cy="355.5384615384615" r="2" fill="cadetblue" id="circle_128" />
    <circle cx="191.74429340040112" cy="344" r="2" fill="coral" id="circle_127" />
    <circle cx="195.11413199197733" cy="330.46153846153845" r="2" fill="coral" id="circle_126" />
    <circle cx="198.49320301805102" cy="328" r="2" fill="coral" id="circle_125" />
    <circle cx="201.8630416096272" cy="359.84615384615387" r="2" fill="cadetblue" id="circle_124" />
    <circle cx="205.2328802012034" cy="333.84615384615387" r="2" fill="coral" id="circle_123" />
    <circle cx="208.6027187927796" cy="317.53846153846155" r="2" fill="coral" id="circle_122" />
    <circle cx="211.9725573843558" cy="329.2307692307692" r="2" fill="coral" id="circle_121" />
    <circle cx="215.342395975932" cy="353.84615384615387" r="2" fill="cadetblue" id="circle_120" />
    <circle cx="218.7122345675082" cy="369.0769230769231" r="2" fill="cadetblue" id="circle_119" />
    <circle cx="222.08207315908442" cy="377.84615384615387" r="2" fill="cadetblue" id="circle_118" />
    <circle cx="225.46114418515805" cy="350.1538461538462" r="2" fill="cadetblue" id="circle_117" />
    <circle cx="228.83098277673426" cy="336.9230769230769" r="2" fill="coral" id="circle_116" />
    <circle cx="232.20082136831047" cy="363.0769230769231" r="2" fill="cadetblue" id="circle_115" />
    <circle cx="235.57065995988665" cy="366.1538461538462" r="2" fill="cadetblue" id="circle_114" />
    <circle cx="238.94973098596031" cy="376" r="2" fill="cadetblue" id="circle_113" />
    <circle cx="242.31956957753653" cy="369.6923076923077" r="2" fill="cadetblue" id="circle_112" />
    <circle cx="245.6894081691127" cy="371.8461538461538" r="2" fill="cadetblue" id="circle_111" />
    <circle cx="249.05924676068892" cy="361.53846153846155" r="2" fill="cadetblue" id="circle_110" />
    <circle cx="252.4383177867626" cy="356.92307692307696" r="2" fill="cadetblue" id="circle_109" />
    <circle cx="255.80815637833882" cy="328.3076923076923" r="2" fill="coral" id="circle_108" />
    <circle cx="259.177994969915" cy="320" r="2" fill="coral" id="circle_107" />
    <circle cx="262.5478335614912" cy="356.7692307692307" r="2" fill="cadetblue" id="circle_106" />
    <circle cx="265.9269045875649" cy="379.53846153846155" r="2" fill="cadetblue" id="circle_105" />
    <circle cx="269.29674317914106" cy="354.6153846153846" r="2" fill="cadetblue" id="circle_104" />
    <circle cx="272.66658177071724" cy="344.3076923076923" r="2" fill="coral" id="circle_103" />
    <circle cx="276.0364203622935" cy="335.3846153846154" r="2" fill="coral" id="circle_102" />
    <circle cx="279.4154913883672" cy="326.7692307692308" r="2" fill="coral" id="circle_101" />
    <circle cx="282.78532997994336" cy="340.15384615384613" r="2" fill="coral" id="circle_100" />
    <circle cx="286.1551685715195" cy="334.9230769230769" r="2" fill="coral" id="circle_99" />
    <circle cx="289.5250071630957" cy="336.3076923076923" r="2" fill="coral" id="circle_98" />
    <circle cx="292.9040781891694" cy="329.84615384615387" r="2" fill="coral" id="circle_97" />
    <circle cx="296.27391678074554" cy="309.0769230769231" r="2" fill="coral" id="circle_96" />
    <circle cx="299.6437553723218" cy="327.2307692307692" r="2" fill="coral" id="circle_95" />
    <circle cx="303.01359396389796" cy="325.6923076923077" r="2" fill="coral" id="circle_94" />
    <circle cx="306.39266498997165" cy="353.6923076923077" r="2" fill="cadetblue" id="circle_93" />
    <circle cx="309.7625035815479" cy="318.15384615384613" r="2" fill="coral" id="circle_92" />
    <circle cx="313.1323421731241" cy="308.9230769230769" r="2" fill="coral" id="circle_91" />
    <circle cx="316.5021807647003" cy="315.38461538461536" r="2" fill="coral" id="circle_90" />
    <circle cx="319.88125179077394" cy="345.2307692307692" r="2" fill="coral" id="circle_89" />
    <circle cx="323.2510903823501" cy="322.30769230769226" r="2" fill="coral" id="circle_88" />
    <circle cx="326.62092897392637" cy="331.84615384615387" r="2" fill="coral" id="circle_87" />
    <circle cx="329.9907675655025" cy="321.0769230769231" r="2" fill="coral" id="circle_86" />
    <circle cx="333.3698385915762" cy="297.0769230769231" r="2" fill="coral" id="circle_85" />
    <circle cx="336.7396771831524" cy="296" r="2" fill="coral" id="circle_84" />
    <circle cx="340.1095157747286" cy="299.38461538461536" r="2" fill="coral" id="circle_83" />
    <circle cx="343.4793543663048" cy="286.61538461538464" r="2" fill="coral" id="circle_82" />
    <circle cx="346.8584253923785" cy="293.5384615384615" r="2" fill="coral" id="circle_81" />
    <circle cx="350.22826398395466" cy="292" r="2" fill="coral" id="circle_80" />
    <circle cx="353.59810257553085" cy="283.6923076923077" r="2" fill="coral" id="circle_79" />
    <circle cx="356.9679411671071" cy="267.38461538461536" r="2" fill="coral" id="circle_78" />
    <circle cx="360.3470121931807" cy="286.9230769230769" r="2" fill="coral" id="circle_77" />
    <circle cx="363.7168507847569" cy="309.3846153846154" r="2" fill="coral" id="circle_76" />
    <circle cx="367.08668937633314" cy="298.7692307692307" r="2" fill="coral" id="circle_75" />
    <circle cx="370.4565279679093" cy="313.2307692307692" r="2" fill="coral" id="circle_74" />
    <circle cx="373.83559899398296" cy="314.46153846153845" r="2" fill="coral" id="circle_73" />
    <circle cx="377.2054375855592" cy="324.3076923076923" r="2" fill="coral" id="circle_72" />
    <circle cx="380.5752761771354" cy="296.6153846153846" r="2" fill="coral" id="circle_71" />
    <circle cx="383.9451147687116" cy="285.38461538461536" r="2" fill="coral" id="circle_70" />
    <circle cx="387.32418579478525" cy="274.30769230769226" r="2" fill="coral" id="circle_69" />
    <circle cx="390.69402438636143" cy="304.3076923076923" r="2" fill="coral" id="circle_68" />
    <circle cx="394.0638629779377" cy="312" r="2" fill="coral" id="circle_67" />
    <circle cx="397.4337015695139" cy="324.46153846153845" r="2" fill="coral" id="circle_66" />
    <circle cx="400.81277259558755" cy="289.23076923076917" r="2" fill="coral" id="circle_65" />
    <circle cx="404.18261118716373" cy="288.46153846153845" r="2" fill="coral" id="circle_64" />
    <circle cx="407.55244977873997" cy="291.2307692307692" r="2" fill="coral" id="circle_63" />
    <circle cx="410.9222883703161" cy="300" r="2" fill="coral" id="circle_62" />
    <circle cx="414.3013593963898" cy="288.30769230769226" r="2" fill="coral" id="circle_61" />
    <circle cx="417.671197987966" cy="297.38461538461536" r="2" fill="coral" id="circle_60" />
    <circle cx="421.04103657954215" cy="290.7692307692308" r="2" fill="coral" id="circle_59" />
    <circle cx="424.41087517111845" cy="331.84615384615387" r="2" fill="coral" id="circle_58" />
    <circle cx="427.7899461971921" cy="313.0769230769231" r="2" fill="coral" id="circle_57" />
    <circle cx="431.1597847887682" cy="304" r="2" fill="coral" id="circle_56" />
    <circle cx="434.5296233803445" cy="299.0769230769231" r="2" fill="coral" id="circle_55" />
    <circle cx="437.89946197192063" cy="310.7692307692307" r="2" fill="coral" id="circle_54" />
    <circle cx="441.27853299799426" cy="287.6923076923077" r="2" fill="coral" id="circle_53" />
    <circle cx="444.64837158957056" cy="295.07692307692304" r="2" fill="coral" id="circle_52" />
    <circle cx="448.0182101811467" cy="313.2307692307692" r="2" fill="coral" id="circle_51" />
    <circle cx="451.388048772723" cy="296.3076923076923" r="2" fill="coral" id="circle_50" />
    <circle cx="454.7671197987966" cy="275.53846153846155" r="2" fill="coral" id="circle_49" />
    <circle cx="458.1369583903728" cy="307.2307692307692" r="2" fill="coral" id="circle_48" />
    <circle cx="461.50679698194904" cy="297.2307692307692" r="2" fill="coral" id="circle_47" />
    <circle cx="464.8766355735252" cy="312.15384615384613" r="2" fill="coral" id="circle_46" />
    <circle cx="468.25570659959885" cy="261.38461538461536" r="2" fill="coral" id="circle_45" />
    <circle cx="471.6255451911751" cy="280.6153846153846" r="2" fill="coral" id="circle_44" />
    <circle cx="474.9953837827513" cy="268.9230769230769" r="2" fill="coral" id="circle_43" />
    <circle cx="478.36522237432746" cy="250.15384615384616" r="2" fill="coral" id="circle_42" />
    <circle cx="481.74429340040115" cy="242.3076923076923" r="2" fill="coral" id="circle_41" />
    <circle cx="485.11413199197733" cy="275.53846153846155" r="2" fill="coral" id="circle_40" />
    <circle cx="488.4839705835535" cy="247.69230769230765" r="2" fill="coral" id="circle_39" />
    <circle cx="491.85380917512975" cy="273.5384615384615" r="2" fill="coral" id="circle_38" />
    <circle cx="495.2328802012034" cy="274" r="2" fill="coral" id="circle_37" />
    <circle cx="498.60271879277957" cy="265.84615384615387" r="2" fill="coral" id="circle_36" />
    <circle cx="501.9725573843558" cy="244.30769230769232" r="2" fill="coral" id="circle_35" />
    <circle cx="505.342395975932" cy="237.53846153846155" r="2" fill="coral" id="circle_34" />
    <circle cx="508.72146700200574" cy="255.07692307692304" r="2" fill="coral" id="circle_33" />
    <circle cx="512.0913055935819" cy="226.3076923076923" r="2" fill="coral" id="circle_32" />
    <circle cx="515.4611441851581" cy="228.15384615384613" r="2" fill="coral" id="circle_31" />
    <circle cx="518.8309827767343" cy="260.3076923076923" r="2" fill="coral" id="circle_30" />
    <circle cx="522.2100538028079" cy="251.38461538461536" r="2" fill="coral" id="circle_29" />
    <circle cx="525.5798923943842" cy="243.8461538461538" r="2" fill="coral" id="circle_28" />
    <circle cx="528.9497309859604" cy="219.5384615384615" r="2" fill="coral" id="circle_27" />
    <circle cx="532.3195695775365" cy="236.46153846153842" r="2" fill="coral" id="circle_26" />
    <circle cx="535.6986406036102" cy="215.0769230769231" r="2" fill="coral" id="circle_25" />
    <circle cx="539.0684791951865" cy="191.84615384615387" r="2" fill="coral" id="circle_24" />
    <circle cx="542.4383177867626" cy="229.07692307692304" r="2" fill="coral" id="circle_23" />
    <circle cx="545.8081563783388" cy="228.9230769230769" r="2" fill="coral" id="circle_22" />
    <circle cx="549.1872274044125" cy="208.30769230769232" r="2" fill="coral" id="circle_21" />
    <circle cx="552.5570659959886" cy="193.84615384615384" r="2" fill="coral" id="circle_20" />
    <circle cx="555.9269045875649" cy="196.6153846153846" r="2" fill="coral" id="circle_19" />
    <circle cx="559.2967431791411" cy="210.15384615384613" r="2" fill="coral" id="circle_18" />
    <circle cx="562.6758142052147" cy="184.46153846153848" r="2" fill="coral" id="circle_17" />
    <circle cx="566.0456527967909" cy="192.15384615384613" r="2" fill="coral" id="circle_16" />
    <circle cx="569.4154913883672" cy="190.15384615384616" r="2" fill="coral" id="circle_15" />
    <circle cx="572.7853299799433" cy="209.53846153846155" r="2" fill="coral" id="circle_14" />
    <circle cx="576.164401006017" cy="188.92307692307693" r="2" fill="coral" id="circle_13" />
    <circle cx="579.5342395975932" cy="178.3076923076923" r="2" fill="coral" id="circle_12" />
    <circle cx="582.9040781891694" cy="195.07692307692312" r="2" fill="coral" id="circle_11" />
    <circle cx="586.2739167807456" cy="192.15384615384613" r="2" fill="coral" id="circle_10" />
    <circle cx="589.6529878068193" cy="189.2307692307692" r="2" fill="coral" id="circle_9" />
    <circle cx="593.0228263983955" cy="178.3076923076923" r="2" fill="coral" id="circle_8" />
    <circle cx="596.3926649899716" cy="156.15384615384613" r="2" fill="coral" id="circle_7" />
    <circle cx="599.7625035815479" cy="134.92307692307696" r="2" fill="coral" id="circle_6" />
    <circle cx="603.1415746076216" cy="149.84615384615387" r="2" fill="coral" id="circle_5" />
    <circle cx="606.5114131991977" cy="161.53846153846152" r="2" fill="coral" id="circle_4" />
    <circle cx="609.881251790774" cy="140.30769230769226" r="2" fill="coral" id="circle_3" />
    <circle cx="613.2510903823502" cy="136.3076923076923" r="2" fill="coral" id="circle_2" />
    <circle cx="616.6301614084238" cy="159.99999999999994" r="2" fill="coral" id="circle_1" />
    <circle cx="620" cy="153.53846153846155" r="2" fill="coral" id="circle" />
  </g>
  <g aria-label="tip" fill="white" stroke="currentColor" pointer-events="none" text-anchor="start" id="g_1" />
  <g id="g">
    <text transform="translate(0, 3920)" id="text_1">
      Global surface temperature anomaly, 1850-2022
      From pre-industrial period
    </text>
    <a transform="translate(0, 3930)" ns1:href="https://observablehq.com/@ateliercartographie/visualising-absolute-and-anomaly-temperature" id="a"><text id="text">url</text></a>
  </g>
</svg>