<?xml version='1.0' encoding='us-ascii'?>
<svg xmlns="http://www.w3.org/2000/svg" width="500" height="400">
  
  <rect x="10" y="10" width="100" height="50" stroke="black" fill="transparent" stroke-width="2" id="rect_2" />
  <circle cx="150" cy="35" r="25" stroke="red" fill="transparent" stroke-width="2" id="circle_2" />
  <rect x="50" y="30" width="80" height="150" stroke="black" fill="transparent" stroke-width="2" id="rect_1" />
  <circle cx="150" cy="35" r="25" stroke="red" fill="transparent" stroke-width="2" id="circle_1" />

  
  <g stroke="blue" stroke-width="2" fill="transparent" transform="translate(50, 50)" id="g_7">
    <ellipse cx="250" cy="35" rx="50" ry="25" transform="translate(20, 20)" id="ellipse_1" />
    <line x1="200" y1="10" x2="300" y2="60 " transform="translate(30, 30)" id="line_1" />
  </g>

  
  <g fill="none" stroke-width="2" id="g_6">
    <polyline points="350,10 380,40 350,70" stroke="green" id="polyline_1" />
    <polygon points="420,10 450,40 420,70" stroke="purple" id="polygon_1" />
  </g>

  
  <g font-family="Verdana" font-size="12" id="g_5">
    <text x="10" y="100" fill="black" id="text_1">test1</text>
    <text x="10" y="120" fill="blue" id="text">test2</text>
  </g>

  
  <g fill="grey" id="g_4">
    <path d="M10,200 Q60,150 110,200 T210,200" id="path_2" />
  </g>

  
  <g stroke="orange" stroke-width="2" id="g_3">
    <rect x="10" y="220" width="80" height="40" fill="yellow" id="rect" />
    <circle cx="150" cy="240" r="20" fill="lightgreen" id="circle" />
  </g>

  
  <g fill="none" stroke="brown" stroke-width="2" id="g_2">
    <ellipse cx="250" cy="240" rx="40" ry="20" id="ellipse" />
    <line x1="300" y1="220" x2="400" y2="260" id="line" />
  </g>

  
  <g stroke="black" fill="pink" stroke-width="2" id="g_1">
    <polyline points="10,300 40,330 10,360" id="polyline" />
    <polygon points="80,300 110,330 80,360" id="polygon" />
  </g>

  
  <g stroke="red" id="g">
    <path d="M150,300 L250,350" stroke-width="2" id="path_1" />
    <path d="M150,350 Q200,300 250,350 T350,350" stroke-width="4" id="path" />
  </g>
</svg>